<?xml version="1.0" encoding="UTF-8" standalone="no"?><svg width="298" height="74" viewBox="0 0 298 74" fill="none" xmlns="http://www.w3.org/2000/svg">
<path d="M11.016 42.408C9.588 42.408 8.28467 42.1927 7.106 41.762C5.95 41.3313 4.95267 40.64 4.114 39.688C3.298 38.736 2.652 37.4893 2.176 35.948C1.72267 34.4067 1.496 32.5253 1.496 30.304C1.496 28.0827 1.72267 26.19 2.176 24.626C2.652 23.0393 3.298 21.7473 4.114 20.75C4.95267 19.7527 5.95 19.0273 7.106 18.574C8.28467 18.098 9.588 17.86 11.016 17.86C13.1467 17.86 14.824 18.3247 16.048 19.254C17.2947 20.1607 18.3147 21.5433 19.108 23.402L14.892 25.578C14.756 25.0793 14.5973 24.6147 14.416 24.184C14.2573 23.7533 14.0307 23.3907 13.736 23.096C13.4413 22.8013 13.0673 22.5747 12.614 22.416C12.1833 22.2347 11.6507 22.144 11.016 22.144C9.656 22.144 8.59067 22.552 7.82 23.368C7.04933 24.184 6.664 25.408 6.664 27.04V33.228C6.664 34.86 7.04933 36.084 7.82 36.9C8.59067 37.716 9.656 38.124 11.016 38.124C11.6507 38.124 12.1947 38.0333 12.648 37.852C13.124 37.648 13.5207 37.3873 13.838 37.07C14.1553 36.73 14.416 36.3447 14.62 35.914C14.824 35.4607 15.0053 34.9733 15.164 34.452L19.176 36.764C18.768 37.648 18.3147 38.4413 17.816 39.144C17.3173 39.8467 16.7393 40.4473 16.082 40.946C15.4473 41.422 14.7107 41.7847 13.872 42.034C13.0333 42.2833 12.0813 42.408 11.016 42.408ZM30.7031 42.408C29.2751 42.408 27.9831 42.1927 26.8271 41.762C25.6711 41.3087 24.6851 40.5947 23.8691 39.62C23.0531 38.6227 22.4184 37.3533 21.9651 35.812C21.5117 34.248 21.2851 32.3553 21.2851 30.134C21.2851 27.9127 21.5117 26.0313 21.9651 24.49C22.4184 22.926 23.0531 21.6567 23.8691 20.682C24.6851 19.6847 25.6711 18.9707 26.8271 18.54C27.9831 18.0867 29.2751 17.86 30.7031 17.86C32.1311 17.86 33.4231 18.0867 34.5791 18.54C35.7351 18.9707 36.7211 19.6847 37.5371 20.682C38.3531 21.6567 38.9877 22.926 39.4411 24.49C39.8944 26.0313 40.1211 27.9127 40.1211 30.134C40.1211 32.3553 39.8944 34.248 39.4411 35.812C38.9877 37.3533 38.3531 38.6227 37.5371 39.62C36.7211 40.5947 35.7351 41.3087 34.5791 41.762C33.4231 42.1927 32.1311 42.408 30.7031 42.408ZM30.7031 38.124C32.0631 38.124 33.1057 37.716 33.8311 36.9C34.5791 36.084 34.9531 34.86 34.9531 33.228V27.04C34.9531 25.408 34.5791 24.184 33.8311 23.368C33.1057 22.552 32.0631 22.144 30.7031 22.144C29.3431 22.144 28.2891 22.552 27.5411 23.368C26.8157 24.184 26.4531 25.408 26.4531 27.04V33.228C26.4531 34.86 26.8157 36.084 27.5411 36.9C28.2891 37.716 29.3431 38.124 30.7031 38.124ZM59.7935 29.624L60.0655 25.646H59.5215L58.0595 29.42L54.1155 38.022L50.2055 29.42L48.7435 25.646H48.1995L48.4715 29.624V42H43.9155V18.268H49.0155L52.2455 25.34L54.0135 30.406H54.3535L56.1215 25.34L59.2835 18.268H64.3495V42H59.7935V29.624ZM69.0171 18.268H79.5571C81.4611 18.268 82.8664 18.8233 83.7731 19.934C84.7024 21.0447 85.1671 22.518 85.1671 24.354C85.1671 25.3513 85.0424 26.1787 84.7931 26.836C84.5664 27.4707 84.2604 27.9807 83.8751 28.366C83.5124 28.7287 83.0931 29.0007 82.6171 29.182C82.1411 29.3407 81.6537 29.4313 81.1551 29.454V29.998C81.6991 29.998 82.2544 30.0887 82.8211 30.27C83.4104 30.4513 83.9431 30.7573 84.4191 31.188C84.8951 31.596 85.2804 32.14 85.5751 32.82C85.8697 33.4773 86.0171 34.282 86.0171 35.234C86.0171 36.1633 85.8924 37.0473 85.6431 37.886C85.3937 38.702 85.0311 39.416 84.5551 40.028C84.0791 40.64 83.5011 41.1273 82.8211 41.49C82.1411 41.83 81.3704 42 80.5091 42H69.0171V18.268ZM73.8791 37.886H79.1491C79.6931 37.886 80.1237 37.7273 80.4411 37.41C80.7811 37.0927 80.9511 36.56 80.9511 35.812V34.112C80.9511 33.364 80.7811 32.8313 80.4411 32.514C80.1237 32.1967 79.6931 32.038 79.1491 32.038H73.8791V37.886ZM73.8791 28.026H78.3671C78.9337 28.026 79.3757 27.8673 79.6931 27.55C80.0104 27.2327 80.1691 26.7113 80.1691 25.986V24.422C80.1691 23.6967 80.0104 23.1753 79.6931 22.858C79.3757 22.5407 78.9337 22.382 78.3671 22.382H73.8791V28.026ZM88.6882 42V38.158H91.4762V22.11H88.6882V18.268H99.1262V22.11H96.3382V38.158H99.1262V42H88.6882ZM109.308 29.284L107.812 25.51H107.268L107.54 29.488V42H102.984V18.268H108.288L114.272 30.984L115.768 34.758H116.312L116.04 30.78V18.268H120.596V42H115.292L109.308 29.284ZM138.456 42L136.994 36.186H129.718L128.256 42H123.598L130.33 18.268H136.518L143.25 42H138.456ZM134.342 26.802L133.594 22.688H133.05L132.302 26.802L130.908 32.276H135.804L134.342 26.802ZM153.4 22.518V42H148.538V22.518H142.86V18.268H159.078V22.518H153.4ZM166.977 18.268V33.67C166.977 35.234 167.238 36.3673 167.759 37.07C168.303 37.75 169.267 38.09 170.649 38.09C172.032 38.09 172.984 37.75 173.505 37.07C174.049 36.3673 174.321 35.234 174.321 33.67V18.268H179.183V33.024C179.183 34.7013 179.036 36.1293 178.741 37.308C178.447 38.4867 177.959 39.4613 177.279 40.232C176.622 40.98 175.749 41.5353 174.661 41.898C173.573 42.238 172.236 42.408 170.649 42.408C169.063 42.408 167.725 42.238 166.637 41.898C165.549 41.5353 164.665 40.98 163.985 40.232C163.328 39.4613 162.852 38.4867 162.557 37.308C162.263 36.1293 162.115 34.7013 162.115 33.024V18.268H166.977ZM183.667 42V18.268H188.529V37.75H196.587V42H183.667ZM220.434 42L218.972 36.186H211.696L210.234 42H205.576L212.308 18.268H218.496L225.228 42H220.434ZM216.32 26.802L215.572 22.688H215.028L214.28 26.802L212.886 32.276H217.782L216.32 26.802ZM232.321 18.268V33.67C232.321 35.234 232.582 36.3673 233.103 37.07C233.647 37.75 234.611 38.09 235.993 38.09C237.376 38.09 238.328 37.75 238.849 37.07C239.393 36.3673 239.665 35.234 239.665 33.67V18.268H244.527V33.024C244.527 34.7013 244.38 36.1293 244.085 37.308C243.791 38.4867 243.303 39.4613 242.623 40.232C241.966 40.98 241.093 41.5353 240.005 41.898C238.917 42.238 237.58 42.408 235.993 42.408C234.407 42.408 233.069 42.238 231.981 41.898C230.893 41.5353 230.009 40.98 229.329 40.232C228.672 39.4613 228.196 38.4867 227.901 37.308C227.607 36.1293 227.459 34.7013 227.459 33.024V18.268H232.321ZM258.089 22.518V42H253.227V22.518H247.549V18.268H263.767V22.518H258.089ZM274.68 42.408C273.252 42.408 271.96 42.1927 270.804 41.762C269.648 41.3087 268.662 40.5947 267.846 39.62C267.03 38.6227 266.395 37.3533 265.942 35.812C265.488 34.248 265.262 32.3553 265.262 30.134C265.262 27.9127 265.488 26.0313 265.942 24.49C266.395 22.926 267.03 21.6567 267.846 20.682C268.662 19.6847 269.648 18.9707 270.804 18.54C271.96 18.0867 273.252 17.86 274.68 17.86C276.108 17.86 277.4 18.0867 278.556 18.54C279.712 18.9707 280.698 19.6847 281.514 20.682C282.33 21.6567 282.964 22.926 283.418 24.49C283.871 26.0313 284.098 27.9127 284.098 30.134C284.098 32.3553 283.871 34.248 283.418 35.812C282.964 37.3533 282.33 38.6227 281.514 39.62C280.698 40.5947 279.712 41.3087 278.556 41.762C277.4 42.1927 276.108 42.408 274.68 42.408ZM274.68 38.124C276.04 38.124 277.082 37.716 277.808 36.9C278.556 36.084 278.93 34.86 278.93 33.228V27.04C278.93 25.408 278.556 24.184 277.808 23.368C277.082 22.552 276.04 22.144 274.68 22.144C273.32 22.144 272.266 22.552 271.518 23.368C270.792 24.184 270.43 25.408 270.43 27.04V33.228C270.43 34.86 270.792 36.084 271.518 36.9C272.266 37.716 273.32 38.124 274.68 38.124Z" fill="black"/>
<path d="M247.68 73V60.52H250.152V62.584H250.44C250.936 61.016 251.96 60.232 253.512 60.232C254.632 60.232 255.496 60.616 256.104 61.384C256.728 62.136 257.04 63.248 257.04 64.72V73H254.568V65.056C254.568 64.176 254.4 63.504 254.064 63.04C253.728 62.576 253.2 62.344 252.48 62.344C251.824 62.344 251.272 62.544 250.824 62.944C250.376 63.328 250.152 63.872 250.152 64.576V73H247.68ZM260.289 73V60.52H262.761V62.992H263.049C263.225 62.192 263.553 61.584 264.033 61.168C264.529 60.736 265.153 60.52 265.905 60.52H266.529V63.04H265.473C264.593 63.04 263.921 63.208 263.457 63.544C262.993 63.88 262.761 64.416 262.761 65.152V73H260.289ZM268.246 73.264C267.686 73.264 267.27 73.144 266.998 72.904C266.726 72.648 266.59 72.288 266.59 71.824V71.344C266.59 70.88 266.726 70.528 266.998 70.288C267.27 70.032 267.686 69.904 268.246 69.904C268.806 69.904 269.222 70.032 269.494 70.288C269.766 70.528 269.902 70.88 269.902 71.344V71.824C269.902 72.288 269.766 72.648 269.494 72.904C269.222 73.144 268.806 73.264 268.246 73.264ZM279.086 73V69.76H272.15V67.528L278.03 56.248H281.51V67.696H283.574V69.76H281.51V73H279.086ZM274.262 67.696H279.086V58.6H278.774L274.262 67.696Z" fill="black"/>
<rect y="58" width="132.774" height="14.6087" fill="#F92958"/>
<rect x="132.774" y="58" width="34.2642" height="14.6087" fill="#321E72"/>
<rect x="167.038" y="58" width="59.9623" height="14.6087" fill="#0B77EF"/>
</svg>
