<?xml version="1.0" encoding="UTF-8" standalone="no"?><svg width="32" height="20" viewBox="0 0 32 20" fill="none" xmlns="http://www.w3.org/2000/svg">
<path fill-rule="evenodd" clip-rule="evenodd" d="M14.2883 0.0621436C14.0068 0.101721 13.9992 0.132098 14.0916 0.846225C14.1494 1.29216 14.1572 1.30188 14.4574 1.30188C14.626 1.30188 14.8306 1.27819 14.912 1.2492C15.1711 1.15694 15.0714 1.04151 14.7326 1.04151C14.3644 1.04151 14.2614 0.81281 14.6084 0.765508C14.9148 0.723674 14.924 0.537505 14.6212 0.505305C14.2838 0.46946 14.28 0.312105 14.6157 0.276347C14.7629 0.26055 14.8729 0.19563 14.8729 0.12446C14.8729 0.00121492 14.787 -0.00789781 14.2883 0.0621436ZM15.9018 0.607546C15.9018 1.08976 15.9308 1.21509 16.0421 1.21509C16.1294 1.21509 16.1825 1.13316 16.1825 0.998112C16.1825 0.818365 16.2274 0.781131 16.4444 0.781131C16.7614 0.781131 16.9308 0.640093 16.9308 0.376245C16.9308 0.136177 16.6792 0 16.2354 0H15.9018V0.607546ZM17.4539 0.161C17.3904 0.256732 17.1839 1.30544 17.2221 1.33799C17.2419 1.355 17.4421 1.3971 17.6668 1.43155C17.9905 1.4812 18.0668 1.46965 18.0337 1.37635C18.0107 1.31152 17.9004 1.24599 17.7887 1.23072C17.6617 1.21344 17.5856 1.14097 17.5856 1.0376C17.5856 0.898648 17.6322 0.880942 17.8787 0.926682C18.1055 0.968776 18.162 0.953501 18.1286 0.859418C18.1048 0.792501 17.994 0.725237 17.8823 0.709961C17.7705 0.694773 17.6791 0.621954 17.6791 0.548267C17.6791 0.448716 17.7513 0.424067 17.9597 0.452448C18.3852 0.510425 18.308 0.297437 17.8656 0.1932C17.6595 0.144683 17.4742 0.130189 17.4539 0.161ZM12.9787 0.317834C12.5016 0.453403 12.4055 0.578471 12.7444 0.623169C12.9107 0.645214 12.9817 0.746153 13.0861 1.10938C13.159 1.3629 13.2637 1.55315 13.3204 1.53492C13.4321 1.49899 13.4341 1.26552 13.327 0.759433C13.2702 0.49029 13.2846 0.433962 13.4108 0.433962C13.4947 0.433962 13.5633 0.375377 13.5633 0.303773C13.5633 0.152321 13.5613 0.152408 12.9787 0.317834ZM16.5532 0.299954C16.6818 0.443682 16.6088 0.607546 16.4163 0.607546C16.2479 0.607546 16.1521 0.458785 16.218 0.299607C16.2844 0.138955 16.4093 0.139128 16.5532 0.299954ZM11.6204 0.766984C11.5285 0.821142 11.5219 0.970772 11.5914 1.42582C11.6408 1.74973 11.702 2.03398 11.7274 2.0575C11.8133 2.13717 11.9731 1.98711 11.9731 1.8268C11.9731 1.61833 12.2141 1.53779 12.4422 1.66997C12.5597 1.7381 12.655 1.74522 12.7136 1.69028C12.772 1.63569 12.6537 1.44414 12.3801 1.15C11.9556 0.693557 11.8422 0.636448 11.6204 0.766984ZM19.153 1.21101C18.7834 1.63317 18.7354 1.72699 18.8649 1.77317C18.9505 1.80363 19.0499 1.78428 19.0859 1.7302C19.1911 1.57242 19.5005 1.67718 19.5319 1.88131C19.5684 2.11721 19.8055 2.21077 19.8669 2.0135C19.8923 1.93243 19.9409 1.64498 19.9749 1.37488C20.0303 0.93701 20.0164 0.873391 19.8464 0.789029C19.7416 0.736954 19.6424 0.696595 19.6262 0.699286C19.61 0.701976 19.3971 0.932237 19.153 1.21101ZM12.0825 1.40873C11.9887 1.49578 11.9478 1.4917 11.8772 1.38798C11.8286 1.31673 11.7883 1.18142 11.7875 1.08733C11.7862 0.923297 11.7947 0.924165 11.9929 1.10808C12.1586 1.26179 12.1764 1.32159 12.0825 1.40873ZM19.737 1.21778C19.737 1.39276 19.5014 1.54612 19.3905 1.44336C19.3403 1.39666 19.618 1.04151 19.7047 1.04151C19.7225 1.04151 19.737 1.12084 19.737 1.21778ZM10.4541 1.3274C10.0607 1.54265 9.97447 1.76891 10.3161 1.68941C10.4925 1.64827 10.5669 1.70061 10.7414 1.98893C10.9779 2.37932 11.0855 2.46664 11.2289 2.38445C11.2906 2.34903 11.2341 2.18179 11.0757 1.93113C10.8727 1.60974 10.8451 1.50359 10.9313 1.37566C11.1428 1.0613 10.9719 1.04402 10.4541 1.3274ZM20.6003 1.53353C20.3775 1.61668 20.1981 2.05576 20.2926 2.28637C20.3751 2.48773 20.7218 2.77735 20.8803 2.77735C21.0223 2.77735 20.95 2.58598 20.7518 2.43704C20.5968 2.32057 20.5653 2.23186 20.6143 2.05056C20.6929 1.75997 20.8987 1.67874 21.247 1.80077C21.5804 1.9175 21.6815 1.79365 21.4014 1.61156C21.1973 1.47894 20.8399 1.44414 20.6003 1.53353ZM9.35233 2.07208L9.03159 2.32048L9.43718 2.80825L9.84277 3.29603L10.1203 3.11272C10.4083 2.92238 10.5416 2.72207 10.4419 2.62946C10.4101 2.60004 10.3069 2.64074 10.2124 2.71998C9.87233 3.0057 9.66916 2.81719 9.97709 2.50161C10.19 2.28333 10.0763 2.21156 9.79169 2.38453C9.46879 2.58086 9.3326 2.37932 9.63473 2.15228C9.77242 2.04882 9.8191 1.95908 9.76241 1.90648C9.70573 1.85388 9.55597 1.91429 9.35233 2.07208ZM14.4987 2.05637C11.1227 2.58294 8.48447 5.04298 7.95475 8.15848C7.84662 8.79423 7.831 9.60435 7.91743 10.0896L7.97542 10.4151H8.66472H9.35402V10.0815C9.35402 9.89814 9.45177 9.57649 9.57131 9.36672C9.84061 8.8943 10.5656 8.50565 11.1775 8.50565H11.5765L11.9454 7.70959L12.3143 6.91353L12.0034 6.43452C11.7542 6.05047 11.6925 5.86326 11.6925 5.4904C11.6925 4.91114 11.8416 4.63862 12.4228 4.15562C12.9331 3.73155 13.8979 3.3435 14.6819 3.24699L15.1763 3.18615L15.119 2.74307C15.0874 2.49936 15.0612 2.23169 15.0608 2.14811C15.06 1.99622 14.974 1.98225 14.4987 2.05637ZM16.3334 2.27153C16.1773 3.22451 16.1759 3.21132 16.4321 3.21132C16.8089 3.21132 17.7649 3.4651 18.2536 3.69492C19.7735 4.40948 20.1476 5.57033 19.2306 6.72641C19.1059 6.88385 19.1258 6.97281 19.4449 7.68112L19.7968 8.46225L20.3048 8.51372C20.8735 8.57135 21.2739 8.73695 21.5799 9.04107C21.8469 9.30631 22.0755 9.81882 22.0755 10.1519V10.4151H22.7641H23.4528L23.5135 9.78583C23.6298 8.57986 23.2077 6.76885 22.5709 5.74201C21.317 3.72027 19.2386 2.39295 16.7727 2.03901C16.3852 1.98338 16.3802 1.98598 16.3334 2.27153ZM21.9389 2.07737C21.9022 2.1324 21.9207 2.23143 21.9797 2.29757C22.0644 2.39226 22.0137 2.4932 21.7394 2.77492C21.464 3.05769 21.4157 3.15395 21.5077 3.23683C21.5991 3.3192 21.6969 3.26469 21.9666 2.98132C22.2513 2.68206 22.3363 2.63753 22.4685 2.7179C22.8042 2.92178 22.7506 2.6686 22.3867 2.33098C22.1363 2.09855 21.9827 2.01159 21.9389 2.07737ZM8.45744 2.78933C8.41918 2.84679 8.59503 3.07002 8.87771 3.32293C9.24495 3.65135 9.39022 3.7332 9.47179 3.65752C9.55326 3.58192 9.4672 3.45147 9.11961 3.124C8.63404 2.66652 8.56304 2.63068 8.45744 2.78933ZM22.5686 3.36693C22.2126 3.66437 22.1021 3.80871 22.1624 3.89758C22.2277 3.99418 22.3549 3.93265 22.7695 3.60405C23.1852 3.27459 23.2719 3.16375 23.1877 3.06967C23.1293 3.00432 23.0762 2.95259 23.0696 2.95467C23.063 2.95675 22.8376 3.14232 22.5686 3.36693ZM7.93174 3.36112C7.51025 3.80636 7.7832 4.50209 8.3826 4.51042C8.62328 4.51381 9.0734 4.20049 9.0734 4.02951C9.0734 3.86842 8.93992 3.87137 8.79278 4.03584C8.64105 4.20552 8.28401 4.20231 8.09787 4.02968C7.91013 3.85549 7.91247 3.74179 8.10769 3.54156C8.21227 3.43437 8.23331 3.35183 8.17102 3.29403C8.10862 3.23614 8.02883 3.25853 7.93174 3.36112ZM21.1535 3.46215C21.065 3.51422 21.058 3.55475 21.1301 3.59615C21.2488 3.6642 21.4207 3.58747 21.4207 3.46657C21.4207 3.36563 21.3204 3.36398 21.1535 3.46215ZM23.1826 3.84395C22.9585 4.00225 22.7634 4.21828 22.7464 4.32677C22.7047 4.5947 22.971 4.94716 23.2153 4.94716C23.4779 4.94716 24.2269 4.5375 24.2269 4.39386C24.2269 4.16673 24.0989 4.17818 23.7053 4.44047C23.2974 4.71222 23.0109 4.72515 23.0109 4.47171C23.0109 4.39811 23.1777 4.23095 23.3815 4.10007C23.5853 3.96927 23.7537 3.81574 23.7557 3.75889C23.7631 3.54009 23.5727 3.56838 23.1826 3.84395ZM6.96453 4.72628C6.55979 5.10174 6.75313 5.64211 7.34122 5.77907C7.80817 5.88782 8.24772 5.40465 8.093 4.95246C8.02855 4.76386 7.6007 4.5132 7.34328 4.5132C7.26124 4.5132 7.09081 4.60911 6.96453 4.72628ZM7.67647 4.9502C7.89096 5.05669 7.91659 5.3655 7.71688 5.43659C7.51184 5.50958 7.10943 5.39631 7.04825 5.24833C6.91178 4.91843 7.27004 4.74841 7.67647 4.9502ZM23.9512 5.17178C23.3437 5.42764 23.3223 5.4444 23.4503 5.56322C23.5207 5.62848 23.6628 5.6021 23.9352 5.47321C24.3894 5.25814 24.4127 5.3162 24.036 5.725C23.7717 6.01193 23.6918 6.24427 23.8172 6.36075C23.8492 6.39035 24.1333 6.29461 24.4486 6.14793C25.1272 5.83236 25.1028 5.84954 25.0293 5.73932C24.9918 5.6829 24.8569 5.69627 24.6488 5.7769C24.19 5.95482 24.1785 5.94007 24.4914 5.57363C24.7047 5.32367 24.7502 5.20971 24.6817 5.09627C24.5699 4.91097 24.5706 4.91088 23.9512 5.17178ZM6.23193 6.03554C6.13904 6.26007 6.16411 6.55265 6.2859 6.66565C6.45119 6.81901 6.6493 6.79306 6.88568 6.5871C7.13824 6.367 7.34552 6.43522 7.19848 6.69004C7.0606 6.92924 7.19427 7.10326 7.35722 6.89652C7.59846 6.5904 7.46488 6.07546 7.14432 6.07546C7.08137 6.07546 6.89644 6.17961 6.7334 6.30694L6.43687 6.53841L6.46896 6.24913C6.50273 5.94484 6.33276 5.79165 6.23193 6.03554ZM24.6174 6.54605C24.0509 6.72319 23.9879 6.76694 24.0562 6.93636C24.0812 6.99841 25.2288 6.72988 25.3346 6.63718C25.3522 6.62182 25.3312 6.55343 25.2878 6.48512C25.221 6.37976 25.1199 6.38896 24.6174 6.54605ZM12.5266 7.69301C12.1218 8.5592 12.1068 8.47918 12.7025 8.63766C13.492 8.84778 13.9923 9.14566 14.1181 9.48041C14.2007 9.7 14.2438 9.73567 14.3088 9.63803C14.3551 9.56868 14.3695 9.40291 14.3407 9.26968C14.2662 8.92381 14.4699 8.53629 14.8372 8.32573C15.1984 8.11855 15.2651 7.93108 14.943 8.02794C14.8272 8.06283 14.6482 8.09165 14.545 8.092C14.3387 8.09278 13.2644 7.64094 12.9331 7.41415C12.7275 7.27337 12.7204 7.27832 12.5266 7.69301ZM18.1936 7.55553C17.6806 7.89819 16.9974 8.10258 16.5979 8.03306C16.2021 7.96415 16.1869 8.06474 16.555 8.31731C16.9167 8.56536 17.1496 8.98787 17.0863 9.28122C17.0589 9.40811 17.074 9.56807 17.1196 9.63664C17.1831 9.73194 17.2369 9.68524 17.348 9.43875C17.5075 9.08429 17.8384 8.89005 18.7174 8.63445L19.2411 8.48221L18.981 7.91008C18.838 7.59537 18.6864 7.33065 18.6443 7.3218C18.6022 7.31295 18.3994 7.41814 18.1936 7.55553ZM15.0381 8.67212C14.7758 8.88953 14.7326 8.98266 14.7326 9.33017C14.7326 9.68082 14.775 9.77021 15.05 9.99813C15.3268 10.2276 15.4195 10.2558 15.7749 10.2187C16.2503 10.1689 16.4458 10.0405 16.6139 9.66736C16.7028 9.46991 16.7107 9.31316 16.6429 9.08551C16.4418 8.40974 15.6123 8.19606 15.0381 8.67212ZM0.935496 9.64462C0.349747 9.86134 0 10.3786 0 11.0282C0 11.7655 0.419528 12.2841 1.14587 12.4445C1.39001 12.4985 1.4031 12.4856 1.4031 12.1903C1.4031 11.9513 1.33819 11.8287 1.12248 11.6603C0.879465 11.4705 0.841862 11.3829 0.841862 11.0063C0.841862 10.6351 0.882926 10.536 1.12248 10.3283C1.31751 10.1592 1.4031 10.003 1.4031 9.81612C1.4031 9.52971 1.32425 9.50081 0.935496 9.64462ZM1.8883 9.82923C1.92721 10.2037 2.28341 10.2832 2.37676 9.93842C2.45552 9.64714 2.38303 9.54716 2.09324 9.54716C1.8853 9.54716 1.8622 9.57883 1.8883 9.82923ZM30.9618 10.4151V11.283H30.6344C30.2689 11.283 30.2419 11.2176 30.4521 10.8405C30.5436 10.6764 30.5867 10.4136 30.569 10.1288L30.5409 9.67734L29.9971 10.528C29.6724 11.036 29.4652 11.4555 29.4827 11.5695C29.5093 11.7431 29.5728 11.7626 30.1847 11.7858L30.8574 11.8111L30.8862 12.133C30.9143 12.446 30.9251 12.4547 31.2892 12.4547C31.6569 12.4547 31.6628 12.4497 31.6322 12.1664C31.6071 11.934 31.6388 11.8689 31.7959 11.8307C32.0637 11.7658 32.0697 11.3224 31.8037 11.2578C31.633 11.2164 31.6166 11.1394 31.6166 10.3798V9.54716H31.2892H30.9618V10.4151ZM3.41422 10.7398C2.42886 10.9495 2.57479 12.4981 3.57997 12.4981C4.2282 12.4981 4.65521 11.9847 4.52183 11.3657C4.42913 10.9358 3.8995 10.6365 3.41422 10.7398ZM26.7833 10.802C26.4114 10.9521 26.2848 11.1679 26.2848 11.6515C26.2848 12.2483 26.7141 12.5729 27.3558 12.4612C27.7435 12.3938 27.9615 12.1715 28.0313 11.7726C28.1085 11.3313 27.9099 10.9405 27.5345 10.795C27.1634 10.6512 27.1569 10.6512 26.7833 10.802ZM5.05117 11.2222C5.05117 11.4811 5.02386 11.8774 4.99056 12.1031C4.932 12.4993 4.93771 12.5125 5.15425 12.4841C5.36322 12.4567 5.38174 12.4102 5.42533 11.8038C5.47378 11.1295 5.51064 11.1493 5.70707 11.9556C5.79257 12.3064 5.85852 12.4113 5.99331 12.4113C6.12679 12.4113 6.20387 12.2927 6.3178 11.9122C6.55445 11.1212 6.59196 11.1105 6.62143 11.8255C6.64865 12.4849 6.65398 12.4981 6.89185 12.4981C7.12664 12.4981 7.13253 12.4852 7.07501 12.0954C7.04227 11.874 7.01551 11.4834 7.01551 11.2275V10.7622H6.69439C6.46905 10.7622 6.35914 10.8076 6.32584 10.9141C6.29974 10.9977 6.23099 11.236 6.17309 11.4437C6.11519 11.6513 6.04569 11.8008 6.01875 11.7757C5.99172 11.7506 5.92007 11.5221 5.85945 11.2679C5.75235 10.8181 5.73991 10.805 5.40026 10.7787L5.05117 10.7517V11.2222ZM7.57676 11.6302V12.4981H7.99161C8.54621 12.4981 8.86602 12.3741 8.99641 12.1084C9.08799 11.922 9.0749 11.8595 8.90998 11.6944C8.74395 11.5283 8.73497 11.4837 8.84778 11.3881C9.03579 11.2288 9.0111 10.9574 8.79895 10.8521C8.69942 10.8027 8.38373 10.7622 8.0974 10.7622H7.57676V11.6302ZM9.5411 11.6362C9.5411 12.4929 9.54521 12.5096 9.75156 12.4825C9.95118 12.4561 9.96343 12.4112 9.98878 11.6085L10.0155 10.7622H9.77832H9.5411V11.6362ZM10.4965 11.6085C10.5212 12.3886 10.5379 12.4547 10.7104 12.4547C10.8747 12.4547 10.8995 12.3915 10.9146 11.9339C10.9241 11.6475 10.935 11.3741 10.9389 11.3264C10.9427 11.2787 11.0982 11.5227 11.2844 11.8688C11.5619 12.3849 11.6628 12.4981 11.8448 12.4981C12.0635 12.4981 12.0667 12.4857 12.0667 11.6302C12.0667 10.8201 12.0542 10.7622 11.8796 10.7622C11.7131 10.7622 11.6919 10.8219 11.6869 11.3047L11.6813 11.8472L11.3863 11.3047C11.1135 10.803 11.068 10.7622 10.7805 10.7622H10.4698L10.4965 11.6085ZM12.824 11.4783C12.7014 11.8721 12.5812 12.2626 12.5569 12.3462C12.5232 12.4619 12.5694 12.4981 12.7508 12.4981C12.9267 12.4981 12.9969 12.447 13.0189 12.3028C13.0418 12.1536 13.1199 12.1012 13.3497 12.0805C13.6055 12.0576 13.6594 12.0868 13.7106 12.2758C13.7551 12.4404 13.8316 12.4981 14.0053 12.4981C14.1833 12.4981 14.2292 12.4614 14.1956 12.3462C14.1712 12.2626 14.051 11.8721 13.9285 11.4783L13.7058 10.7622H13.3762H13.0467L12.824 11.4783ZM14.3116 10.9358C14.3116 11.0624 14.374 11.1094 14.5416 11.1094C14.7636 11.1094 14.7724 11.1324 14.7988 11.7821C14.8241 12.4045 14.8418 12.4568 15.0366 12.4825C15.2398 12.5092 15.2471 12.4863 15.2471 11.8156C15.2471 11.1229 15.2478 11.1209 15.5034 11.0934C15.6582 11.077 15.7723 11.0057 15.791 10.9141C15.8185 10.7796 15.7355 10.7622 15.0668 10.7622C14.374 10.7622 14.3116 10.7766 14.3116 10.9358ZM16.197 11.4651C16.227 12.077 16.2599 12.1893 16.4512 12.333C16.7326 12.5444 17.2225 12.5444 17.5039 12.333C17.6952 12.1893 17.7281 12.077 17.758 11.4651L17.7925 10.7622H17.5487C17.3103 10.7622 17.3049 10.775 17.3035 11.3481C17.3018 12.0269 17.2288 12.1773 16.9202 12.1368C16.7096 12.1092 16.6953 12.0693 16.6696 11.4349C16.6429 10.7774 16.6369 10.7622 16.4025 10.7622H16.1626L16.197 11.4651ZM18.3339 11.6302V12.4981H18.8951C19.3882 12.4981 19.4564 12.4776 19.4564 12.3297C19.4564 12.1979 19.3804 12.1556 19.1056 12.1344L18.7548 12.1075L18.7275 11.4349C18.7031 10.8336 18.6807 10.7622 18.517 10.7622C18.3474 10.7622 18.3339 10.8263 18.3339 11.6302ZM20.9974 10.8707C20.9394 11.0159 20.4853 12.4343 20.4853 12.47C20.4853 12.4854 20.586 12.4981 20.709 12.4981C20.8697 12.4981 20.9493 12.4369 20.9914 12.2811C21.0375 12.1107 21.1097 12.0641 21.3272 12.0641C21.5446 12.0641 21.6169 12.1107 21.6629 12.2811C21.7051 12.4369 21.7847 12.4981 21.9453 12.4981C22.2239 12.4981 22.2236 12.4845 21.9185 11.5388L21.6679 10.7622H21.3543C21.1818 10.7622 21.0212 10.8111 20.9974 10.8707ZM22.5432 11.4171C22.5432 11.9967 22.5696 12.0965 22.7728 12.285C22.9987 12.4947 23.3828 12.5601 23.7082 12.4442C23.9714 12.3505 24.1334 11.9265 24.1334 11.3307C24.1334 10.7822 24.1251 10.7622 23.8995 10.7622C23.6733 10.7622 23.6656 10.7814 23.6643 11.3481C23.6626 12.0269 23.5895 12.1773 23.2809 12.1368C23.0703 12.1092 23.0561 12.0693 23.0303 11.4349C23.004 10.7852 22.9952 10.7622 22.7731 10.7622C22.5493 10.7622 22.5432 10.7794 22.5432 11.4171ZM24.5248 10.9141C24.5435 11.0057 24.6577 11.077 24.8124 11.0934C25.0678 11.1209 25.0688 11.1234 25.0688 11.8095C25.0688 12.4402 25.0845 12.4981 25.2559 12.4981C25.4272 12.4981 25.4429 12.4402 25.4429 11.8095C25.4429 11.1234 25.4439 11.1209 25.6993 11.0934C25.854 11.077 25.9682 11.0057 25.9869 10.9141C26.0144 10.7795 25.931 10.7622 25.2559 10.7622C24.5807 10.7622 24.4973 10.7795 24.5248 10.9141ZM3.92644 11.1503C4.08153 11.3236 4.08696 11.8438 3.93552 12.0131C3.51271 12.4859 2.93632 11.7317 3.32601 11.2156C3.49335 10.9938 3.7605 10.9648 3.92644 11.1503ZM8.48194 11.1616C8.54013 11.3022 8.37568 11.4529 8.16138 11.4553C8.09712 11.456 8.04446 11.3589 8.04446 11.2396C8.04446 11.0794 8.09413 11.0226 8.23444 11.0226C8.33901 11.0226 8.45033 11.0851 8.48194 11.1616ZM27.4487 11.2156C27.7276 11.5849 27.5702 12.1509 27.1889 12.1509C26.892 12.1509 26.7525 11.9911 26.7525 11.6505C26.7525 11.0619 27.1469 10.8156 27.4487 11.2156ZM13.5067 11.4802C13.5514 11.6559 13.5283 11.7348 13.4212 11.7729C13.2048 11.8501 13.1592 11.762 13.2313 11.4059C13.3005 11.0633 13.4082 11.0924 13.5067 11.4802ZM21.4569 11.3861C21.522 11.6877 21.3921 11.8987 21.2325 11.7506C21.1304 11.6559 21.2112 11.1094 21.3272 11.1094C21.3658 11.1094 21.4242 11.2339 21.4569 11.3861ZM8.55397 11.8666C8.59288 11.9606 8.55462 12.0577 8.45089 12.1281C8.22396 12.2821 8.09665 12.2235 8.06167 11.949C8.0366 11.7529 8.06775 11.717 8.26212 11.717C8.39355 11.717 8.51861 11.7811 8.55397 11.8666ZM28.4362 11.8038C28.4362 11.8515 28.6046 11.8905 28.8104 11.8905C29.0162 11.8905 29.1845 11.8515 29.1845 11.8038C29.1845 11.756 29.0162 11.717 28.8104 11.717C28.6046 11.717 28.4362 11.756 28.4362 11.8038ZM2.08127 11.8749C1.90831 11.8977 1.8708 11.9573 1.8708 12.2098C1.8708 12.5015 1.88371 12.5139 2.12785 12.457C2.4487 12.3823 2.42886 12.4129 2.35469 12.1069C2.30455 11.9 2.24889 11.8528 2.08127 11.8749ZM8.88632 12.8399C8.88632 13.0115 10.0235 14.3113 10.5131 14.6993C12.1208 15.9739 13.9346 16.5532 16.0421 16.4655C17.7333 16.3952 18.9193 16.0226 20.2603 15.1402C20.9332 14.6975 22.0324 13.6284 22.3387 13.1187L22.5552 12.7585H21.8332H21.1113L20.6078 13.2746C19.6608 14.2456 18.1695 14.9683 17.2311 14.9109C16.7692 14.8827 16.7356 14.8404 16.6068 14.1255L16.5481 13.8H15.7186H14.8891L14.7635 14.3424L14.638 14.8849L14.2304 14.912C13.6629 14.9499 12.6642 14.6484 12.0059 14.2405C11.7019 14.0521 11.1878 13.6416 10.8635 13.3282L10.2739 12.7585H9.58011C9.19856 12.7585 8.88632 12.7951 8.88632 12.8399ZM11.1393 16.2444C10.5072 16.4614 10.5026 17.1331 11.131 17.4452C11.397 17.5772 11.4219 17.3474 11.1622 17.1578C10.886 16.9563 10.8887 16.8813 11.182 16.6092C11.409 16.3985 11.4303 16.395 11.6523 16.5299C11.9159 16.6902 12.1384 16.6319 11.9723 16.4462C11.806 16.2603 11.388 16.159 11.1393 16.2444ZM19.7588 16.2447C19.6792 16.3185 19.7126 16.439 19.8913 16.7218C20.1365 17.11 20.1327 17.3585 19.8816 17.3585C19.7643 17.3585 19.6276 17.2022 19.2101 16.591C19.1988 16.5747 19.124 16.5956 19.0438 16.6372C18.9181 16.7025 18.9403 16.7736 19.2013 17.1443C19.5378 17.6221 19.7968 17.7161 20.1633 17.4933C20.4701 17.3068 20.4582 16.9751 20.1281 16.5135C19.9315 16.2387 19.8384 16.1708 19.7588 16.2447ZM18.1873 16.6572C18.1393 16.6995 18.0158 16.7528 17.9129 16.7758C17.7687 16.808 17.7836 16.8199 17.9776 16.8276C18.116 16.8332 18.2571 16.7961 18.2909 16.7451C18.3725 16.6226 18.2981 16.5595 18.1873 16.6572ZM12.169 16.8594C12.125 16.9669 12.021 17.2053 11.9381 17.3894C11.7946 17.7079 11.8036 17.8792 11.9637 17.8792C12.0038 17.8792 12.0846 17.7816 12.1432 17.6622C12.2646 17.415 12.3357 17.3982 12.5751 17.5606C12.7196 17.6587 12.7279 17.7059 12.6301 17.8754C12.5372 18.0365 12.5392 18.0887 12.6408 18.1471C12.8024 18.2397 12.8373 18.1977 13.0998 17.5962C13.2633 17.2217 13.2912 17.0713 13.2113 16.9971C13.1314 16.9229 13.0762 16.9559 12.9915 17.1283C12.8737 17.3684 12.7617 17.407 12.5478 17.2812C12.4601 17.2297 12.4407 17.1227 12.4851 16.9354C12.5362 16.7195 12.5186 16.6641 12.3992 16.6641C12.3166 16.6641 12.2131 16.752 12.169 16.8594ZM18.1234 16.9849C17.9466 17.0272 17.9107 17.3753 18.0198 17.9877C18.0847 18.3522 18.3339 18.4434 18.3339 18.1025C18.3339 17.8468 18.592 17.7686 18.8272 17.9533C18.9361 18.0387 19.0248 18.054 19.0852 17.998C19.1456 17.9419 19.0469 17.7502 18.7981 17.4402C18.3941 16.9369 18.3758 16.9245 18.1234 16.9849ZM13.5263 17.6646C13.3422 18.3443 13.3412 18.4 13.5129 18.4C13.642 18.4 13.76 18.1166 13.8984 17.4747C13.9395 17.2838 13.9165 17.196 13.8159 17.1601C13.7091 17.1221 13.641 17.2407 13.5263 17.6646ZM14.5266 17.3658C14.1846 17.4833 14.1752 17.7259 14.5026 17.9804C14.8122 18.2211 14.8055 18.4469 14.4917 18.3545C14.2563 18.2851 14.0571 18.3937 14.2315 18.4963C14.4749 18.6393 14.954 18.5837 15.06 18.4C15.1836 18.1856 15.0492 17.9153 14.7794 17.8358C14.4899 17.7506 14.5407 17.5138 14.8414 17.5475C14.9783 17.5629 15.1064 17.5315 15.1259 17.4778C15.1708 17.354 14.776 17.2803 14.5266 17.3658ZM17.1501 17.6622C17.1818 17.877 17.1933 18.0528 17.1756 18.0528C17.1578 18.0528 17.0267 17.8966 16.884 17.7056C16.7019 17.4617 16.5571 17.3585 16.3973 17.3585C16.2254 17.3585 16.1811 17.3955 16.2161 17.5104C16.2417 17.5938 16.2905 17.8673 16.3248 18.1179C16.3692 18.4423 16.428 18.5736 16.5292 18.5736C16.6447 18.5736 16.6595 18.5002 16.6082 18.183C16.5735 17.9682 16.5793 17.7935 16.6211 17.7948C16.6628 17.7961 16.8001 17.9523 16.9262 18.1419C17.1867 18.5337 17.492 18.6092 17.492 18.2819C17.492 17.7538 17.3683 17.2717 17.2327 17.2717C17.1203 17.2717 17.1038 17.3492 17.1501 17.6622ZM18.521 17.586C18.521 17.6518 18.4578 17.7056 18.3806 17.7056C18.2916 17.7056 18.2403 17.6225 18.2403 17.4781C18.2403 17.2856 18.262 17.2671 18.3806 17.3585C18.4578 17.4179 18.521 17.5203 18.521 17.586ZM15.5277 18.0157C15.5277 18.5642 15.5517 18.6684 15.6729 18.645C15.7528 18.6295 15.816 18.5877 15.8132 18.5519C15.8105 18.516 15.8083 18.2329 15.8083 17.9226C15.8083 17.479 15.7783 17.3585 15.668 17.3585C15.5556 17.3585 15.5277 17.4893 15.5277 18.0157ZM14.4649 18.8773C14.4321 18.9567 14.4648 19.0075 14.5484 19.0075C14.624 19.0075 14.6858 18.9489 14.6858 18.8773C14.6858 18.8057 14.6482 18.7471 14.6023 18.7471C14.5563 18.7471 14.4945 18.8057 14.4649 18.8773Z" fill="white"/>
</svg>
