<?xml version="1.0" encoding="UTF-8" standalone="no"?><svg width="133" height="79" viewBox="0 0 133 79" fill="none" xmlns="http://www.w3.org/2000/svg">
<path fill-rule="evenodd" clip-rule="evenodd" d="M59.3856 0.258284C58.2158 0.422777 58.1843 0.549032 58.5684 3.51712C58.8083 5.37056 58.8409 5.41096 60.0885 5.41096C60.7895 5.41096 61.6397 5.31248 61.978 5.19199C63.0549 4.80854 62.6404 4.32877 61.2323 4.32877C59.7021 4.32877 59.274 3.37824 60.716 3.18164C61.9896 3.00777 62.0277 2.234 60.7692 2.10017C59.3669 1.95119 59.3514 1.29719 60.7463 1.14857C61.3582 1.08291 61.8154 0.813086 61.8154 0.517287C61.8154 0.00504953 61.4585 -0.0328253 59.3856 0.258284ZM66.092 2.52511C66.092 4.52933 66.2125 5.05023 66.6751 5.05023C67.0379 5.05023 67.2583 4.7097 67.2583 4.1484C67.2583 3.40133 67.4449 3.24658 68.3469 3.24658C69.6644 3.24658 70.3685 2.66039 70.3685 1.56377C70.3685 0.565986 69.3227 0 67.4784 0H66.092V2.52511ZM72.5426 0.669156C72.279 1.06704 71.4206 5.42575 71.5792 5.56102C71.6616 5.63173 72.4936 5.80668 73.4278 5.94989C74.773 6.15623 75.0902 6.10825 74.9526 5.72047C74.8569 5.451 74.3986 5.17865 73.9344 5.11516C73.4064 5.04337 73.09 4.74216 73.09 4.31253C73.09 3.73501 73.284 3.66142 74.3084 3.85152C75.2508 4.02648 75.486 3.96299 75.3472 3.57195C75.2481 3.29383 74.7874 3.01426 74.3232 2.95078C73.8586 2.88765 73.4787 2.585 73.4787 2.27874C73.4787 1.86498 73.7789 1.76253 74.6451 1.88049C76.4136 2.12146 76.0925 1.23622 74.254 0.802986C73.3975 0.601337 72.6273 0.541097 72.5426 0.669156ZM53.9427 1.321C51.9596 1.88446 51.5603 2.40427 52.9688 2.59005C53.6601 2.68167 53.9552 3.1012 54.389 4.61086C54.6919 5.66455 55.1273 6.45527 55.3629 6.37952C55.8271 6.23018 55.8357 5.25981 55.3905 3.15639C55.1541 2.03777 55.214 1.80365 55.7385 1.80365C56.0872 1.80365 56.3726 1.56016 56.3726 1.26256C56.3726 0.633082 56.364 0.633444 53.9427 1.321ZM68.7994 1.24669C69.3336 1.84406 69.0304 2.52511 68.2303 2.52511C67.5305 2.52511 67.1324 1.90682 67.4061 1.24524C67.6821 0.577531 68.2011 0.578252 68.7994 1.24669ZM48.2973 3.18778C47.9151 3.41287 47.8879 4.03477 48.1768 5.92608C48.3821 7.27233 48.6363 8.45372 48.7421 8.55148C49.099 8.88263 49.7634 8.25893 49.7634 7.59266C49.7634 6.72618 50.7649 6.39142 51.7131 6.94082C52.2014 7.22399 52.5972 7.25357 52.8409 7.02523C53.0835 6.79833 52.5921 6.0022 51.4549 4.77968C49.6903 2.8826 49.2191 2.64524 48.2973 3.18778ZM79.6047 5.03328C78.0686 6.78787 77.8688 7.17782 78.4073 7.36973C78.763 7.49634 79.1763 7.4159 79.3259 7.19116C79.7629 6.53536 81.049 6.97076 81.1796 7.8192C81.3312 8.79966 82.3164 9.18853 82.5718 8.36859C82.6772 8.03167 82.8794 6.83693 83.0209 5.71433C83.251 3.89445 83.1931 3.63003 82.4867 3.2794C82.0509 3.06296 81.6388 2.89522 81.5715 2.90641C81.5039 2.91759 80.619 3.87461 79.6047 5.03328ZM50.2179 5.85502C49.8279 6.21683 49.658 6.19988 49.3645 5.7688C49.1627 5.47264 48.9952 4.91026 48.9917 4.51923C48.9862 3.83745 49.0216 3.84106 49.8454 4.60545C50.5343 5.2443 50.6082 5.49285 50.2179 5.85502ZM82.0318 5.06141C82.0318 5.78864 81.0525 6.42605 80.5918 5.99895C80.383 5.80488 81.5373 4.32877 81.8977 4.32877C81.9716 4.32877 82.0318 4.65847 82.0318 5.06141ZM43.4496 5.51701C41.8148 6.41162 41.4564 7.35205 42.8762 7.02162C43.6094 6.85063 43.9185 7.06816 44.644 8.2665C45.6268 9.88907 46.0743 10.252 46.6703 9.91035C46.9265 9.76317 46.6917 9.06805 46.0335 8.02626C45.1898 6.69047 45.0751 6.2493 45.4332 5.71758C46.3122 4.41101 45.6019 4.33923 43.4496 5.51701ZM85.6198 6.37375C84.6942 6.71933 83.9485 8.54427 84.3411 9.50273C84.684 10.3396 86.1249 11.5434 86.7838 11.5434C87.374 11.5434 87.0735 10.748 86.2497 10.129C85.6055 9.64485 85.4744 9.27619 85.6782 8.52262C86.0047 7.3149 86.86 6.97725 88.3078 7.48444C89.6934 7.96962 90.1137 7.45486 88.9497 6.69805C88.1014 6.14685 86.6159 6.0022 85.6198 6.37375ZM38.8706 8.61208L37.5375 9.64449L39.2233 11.6718L40.909 13.6991L42.0625 12.9372C43.2595 12.1462 43.8135 11.3136 43.3991 10.9287C43.2669 10.8064 42.8381 10.9756 42.4454 11.3049C41.0319 12.4925 40.1874 11.709 41.4673 10.3973C42.3521 9.4901 41.8798 9.19178 40.6967 9.91071C39.3547 10.7267 38.7886 9.88907 40.0444 8.9454C40.6166 8.5154 40.8106 8.14241 40.575 7.92381C40.3394 7.70521 39.717 7.95627 38.8706 8.61208ZM60.2603 8.54679C46.2286 10.7353 35.2636 20.9599 33.0619 33.9087C32.6125 36.551 32.5476 39.9181 32.9068 41.9349L33.1479 43.2877H36.0127H38.8776V41.9014C38.8776 41.1392 39.2839 39.8023 39.7808 38.9304C40.9001 36.967 43.9131 35.3516 46.4564 35.3516H48.115L49.6479 32.043L51.1812 28.7344L49.889 26.7435C48.8533 25.1472 48.597 24.3692 48.597 22.8195C48.597 20.4119 49.2168 19.2792 51.6322 17.2718C53.753 15.5093 57.7632 13.8964 61.0216 13.4953L63.0766 13.2424L62.8383 11.4009C62.7069 10.388 62.5981 9.27547 62.5965 8.92808C62.593 8.2968 62.2357 8.23873 60.2603 8.54679ZM67.8858 9.44104C67.2369 13.4019 67.2311 13.347 68.296 13.347C69.862 13.347 73.8352 14.4018 75.8666 15.357C82.1834 18.3269 83.7386 23.1517 79.9274 27.9566C79.4087 28.611 79.4916 28.9807 80.8177 31.9247L82.2803 35.1712L84.3917 35.3851C86.7555 35.6247 88.4198 36.3129 89.6915 37.5769C90.8011 38.6793 91.7512 40.8095 91.7512 42.1939V43.2877H94.6134H97.4756L97.7279 40.6724C98.2115 35.66 96.457 28.133 93.8102 23.8652C88.5986 15.4624 79.9604 9.9457 69.7115 8.47464C68.1008 8.24341 68.0802 8.25424 67.8858 9.44104ZM91.1836 8.63409C91.0312 8.86279 91.1078 9.27438 91.3531 9.54926C91.7054 9.94282 91.4943 10.3623 90.3544 11.5333C89.2098 12.7085 89.0092 13.1086 89.3913 13.4531C89.7712 13.7954 90.1778 13.5689 91.2987 12.3911C92.4821 11.1473 92.8351 10.9622 93.3849 11.2963C94.7798 12.1436 94.557 11.0914 93.0447 9.68814C92.0039 8.72211 91.3656 8.36065 91.1836 8.63409ZM35.1512 11.5932C34.9922 11.832 35.7231 12.7598 36.898 13.8109C38.4243 15.1759 39.0281 15.5161 39.3671 15.2016C39.7057 14.8874 39.3481 14.3452 37.9034 12.9841C35.8852 11.0827 35.5901 10.9337 35.1512 11.5932ZM93.8009 13.9938C92.3212 15.23 91.862 15.8299 92.1124 16.1993C92.3838 16.6008 92.9125 16.3451 94.6356 14.9793C96.3633 13.61 96.7237 13.1493 96.3738 12.7583C96.1312 12.4867 95.9104 12.2717 95.8831 12.2804C95.8555 12.289 94.919 13.0603 93.8009 13.9938ZM32.9663 13.9697C31.2145 15.8202 32.3489 18.7118 34.8402 18.7464C35.8405 18.7605 37.7113 17.4583 37.7113 16.7476C37.7113 16.0781 37.1565 16.0904 36.545 16.774C35.9144 17.4792 34.4304 17.4659 33.6568 16.7484C32.8765 16.0244 32.8862 15.5518 33.6976 14.7196C34.1322 14.2741 34.2197 13.9311 33.9608 13.6908C33.7015 13.4502 33.3698 13.5433 32.9663 13.9697ZM87.9191 14.3895C87.5513 14.606 87.5221 14.7744 87.8219 14.9465C88.3152 15.2293 89.0298 14.9104 89.0298 14.4079C89.0298 13.9884 88.613 13.9816 87.9191 14.3895ZM96.3528 15.9764C95.4213 16.6344 94.6103 17.5322 94.5399 17.9831C94.3665 19.0967 95.4734 20.5616 96.4885 20.5616C97.5801 20.5616 100.693 18.859 100.693 18.262C100.693 17.318 100.161 17.3656 98.5253 18.4557C96.8298 19.5851 95.639 19.6389 95.639 18.5856C95.639 18.2797 96.3322 17.5849 97.1793 17.0409C98.0265 16.4973 98.7263 15.8592 98.7344 15.6229C98.7655 14.7135 97.974 14.8311 96.3528 15.9764ZM28.9463 19.6436C27.2641 21.2041 28.0677 23.45 30.5119 24.0192C32.4527 24.4712 34.2796 22.4631 33.6365 20.5837C33.3687 19.7998 31.5904 18.758 30.5205 18.758C30.1795 18.758 29.4712 19.1566 28.9463 19.6436ZM31.9053 20.5743C32.7968 21.0169 32.9033 22.3004 32.0733 22.5958C31.2211 22.8992 29.5486 22.4284 29.2943 21.8134C28.7271 20.4422 30.2161 19.7356 31.9053 20.5743ZM99.5474 21.4952C97.0223 22.5586 96.9332 22.6283 97.4655 23.1221C97.7578 23.3934 98.3484 23.2837 99.4805 22.748C101.368 21.8541 101.465 22.0955 99.8996 23.7945C98.8013 24.9871 98.4689 25.9528 98.9902 26.4369C99.1232 26.5599 100.304 26.162 101.614 25.5524C104.435 24.2407 104.334 24.3122 104.028 23.854C103.872 23.6196 103.311 23.6751 102.446 24.0102C100.54 24.7497 100.492 24.6884 101.793 23.1654C102.679 22.1265 102.868 21.6529 102.583 21.1814C102.119 20.4112 102.121 20.4109 99.5474 21.4952ZM25.9014 25.0852C25.5154 26.0184 25.6196 27.2344 26.1258 27.7041C26.8127 28.3415 27.6362 28.2337 28.6186 27.3776C29.6683 26.4628 30.5298 26.7464 29.9187 27.8055C29.3456 28.7996 29.9012 29.5229 30.5784 28.6637C31.5811 27.3914 31.0259 25.2511 29.6936 25.2511C29.4319 25.2511 28.6633 25.684 27.9857 26.2132L26.7533 27.1753L26.8866 25.973C27.027 24.7082 26.3206 24.0716 25.9014 25.0852ZM102.316 27.207C99.9614 27.9433 99.6998 28.1251 99.9836 28.8292C100.087 29.0872 104.857 27.971 105.297 27.5858C105.37 27.5219 105.283 27.2377 105.103 26.9538C104.825 26.5159 104.405 26.5541 102.316 27.207ZM52.0638 31.9741C50.3811 35.5742 50.3189 35.2416 52.7947 35.9003C56.0759 36.7736 58.1555 38.0116 58.6784 39.403C59.0217 40.3156 59.2009 40.4639 59.4711 40.058C59.6632 39.7698 59.7231 39.0808 59.6037 38.5271C59.2938 37.0896 60.1406 35.4789 61.6669 34.6038C63.1684 33.7427 63.4456 32.9636 62.107 33.3661C61.6257 33.5112 60.8816 33.6309 60.4528 33.6324C59.5951 33.6356 55.13 31.7576 53.7534 30.815C52.8989 30.2299 52.8693 30.2505 52.0638 31.9741ZM75.617 31.4027C73.485 32.8268 70.6453 33.6764 68.9849 33.3874C67.34 33.101 67.277 33.5191 68.8068 34.5688C70.3098 35.5998 71.2779 37.3558 71.0151 38.5751C70.9011 39.1025 70.9638 39.7673 71.1535 40.0523C71.4175 40.4484 71.641 40.2543 72.1025 39.2298C72.7657 37.7566 74.1408 36.9493 77.7942 35.8869L79.9709 35.2542L78.8897 32.8763C78.2953 31.5683 77.6655 30.468 77.4905 30.4312C77.3152 30.3944 76.4723 30.8316 75.617 31.4027ZM62.502 36.0435C61.4119 36.9471 61.2323 37.3342 61.2323 38.7785C61.2323 40.2359 61.4088 40.6074 62.5514 41.5547C63.7022 42.5085 64.0875 42.6257 65.5644 42.4713C67.5402 42.2646 68.3527 41.7308 69.0514 40.18C69.4211 39.3593 69.4537 38.7078 69.1719 37.7616C68.3364 34.953 64.8887 34.0649 62.502 36.0435ZM3.88816 40.0855C1.45364 40.9862 0 43.1362 0 45.8359C0 48.9003 1.74366 51.0556 4.76251 51.7226C5.77722 51.947 5.83165 51.8933 5.83165 50.6661C5.83165 49.6726 5.56183 49.1629 4.66532 48.4631C3.65528 47.6742 3.49899 47.3102 3.49899 45.745C3.49899 44.2021 3.66966 43.7902 4.66532 42.9269C5.47592 42.2242 5.83165 41.5749 5.83165 40.7983C5.83165 39.6079 5.50391 39.4877 3.88816 40.0855ZM7.84823 40.8527C8.00996 42.4089 9.49042 42.7397 9.87842 41.3065C10.2058 40.0959 9.90447 39.6804 8.70004 39.6804C7.83579 39.6804 7.73976 39.812 7.84823 40.8527ZM128.685 43.2877V46.895H127.324C125.805 46.895 125.693 46.6233 126.567 45.056C126.947 44.3738 127.126 43.2815 127.053 42.098L126.935 40.2215L124.676 43.757C123.326 45.8683 122.465 47.6121 122.537 48.0857C122.648 48.8072 122.912 48.8884 125.455 48.9847L128.251 49.09L128.371 50.4276C128.487 51.7288 128.533 51.7648 130.046 51.7648C131.574 51.7648 131.598 51.7439 131.471 50.5665C131.367 49.6008 131.499 49.3299 132.152 49.1716C133.265 48.9017 133.29 47.0588 132.184 46.7904C131.474 46.6183 131.406 46.2983 131.406 43.1412V39.6804H130.046H128.685V43.2877ZM14.1903 44.6372C10.095 45.5087 10.7015 51.9452 14.8793 51.9452C17.5735 51.9452 19.3482 49.8115 18.7938 47.2388C18.4086 45.4521 16.2073 44.2079 14.1903 44.6372ZM111.318 44.8958C109.773 45.5195 109.246 46.4166 109.246 48.4266C109.246 50.907 111.031 52.2562 113.698 51.7919C115.309 51.5116 116.215 50.5878 116.505 48.9299C116.826 47.0955 116 45.4715 114.44 44.8666C112.898 44.2689 112.871 44.2689 111.318 44.8958ZM20.9939 46.6425C20.9939 47.7182 20.8804 49.3656 20.742 50.3035C20.4986 51.9503 20.5223 52.0051 21.4224 51.8871C22.2909 51.7731 22.3679 51.5798 22.549 49.0594C22.7504 46.2568 22.9036 46.3395 23.72 49.6906C24.0754 51.1484 24.3495 51.5845 24.9097 51.5845C25.4645 51.5845 25.7848 51.0917 26.2583 49.5103C27.242 46.2226 27.3979 46.1782 27.5203 49.1495C27.6334 51.8904 27.6556 51.9452 28.6443 51.9452C29.6201 51.9452 29.6446 51.8915 29.4055 50.2714C29.2694 49.3512 29.1582 47.7279 29.1582 46.6641V44.7306H27.8236C26.887 44.7306 26.4302 44.9189 26.2918 45.3619C26.1833 45.7093 25.8976 46.6995 25.6569 47.5627C25.4163 48.4259 25.1274 49.0471 25.0154 48.9428C24.9031 48.8386 24.6053 47.8888 24.3533 46.8322C23.9082 44.9629 23.8565 44.9081 22.4448 44.7991L20.9939 44.6869V46.6425ZM31.4909 48.3379V51.9452H33.2151C35.5202 51.9452 36.8494 51.4297 37.3913 50.3255C37.772 49.5507 37.7175 49.291 37.0321 48.6048C36.342 47.9144 36.3047 47.729 36.7736 47.3318C37.555 46.6695 37.4524 45.5419 36.5706 45.104C36.157 44.8987 34.8449 44.7306 33.6548 44.7306H31.4909V48.3379ZM39.6552 48.3632C39.6552 51.9236 39.6723 51.9932 40.5299 51.8803C41.3596 51.7706 41.4105 51.5841 41.5159 48.2477L41.6271 44.7306H40.6411H39.6552V48.3632ZM43.6262 48.2477C43.7288 51.49 43.798 51.7648 44.5149 51.7648C45.198 51.7648 45.301 51.5022 45.364 49.6005C45.4033 48.41 45.4487 47.2737 45.4647 47.0753C45.4806 46.8769 46.1268 47.8913 46.9008 49.3299C48.0543 51.4748 48.4734 51.9452 49.23 51.9452C50.1389 51.9452 50.1522 51.8936 50.1522 48.3379C50.1522 44.9712 50.1004 44.7306 49.3746 44.7306C48.6826 44.7306 48.5943 44.9784 48.5737 46.9852L48.5504 49.2397L47.3242 46.9852C46.1905 44.9001 46.0012 44.7306 44.8065 44.7306H43.515L43.6262 48.2477ZM53.2997 47.7066C52.7904 49.3433 52.2908 50.9665 52.1897 51.3139C52.0494 51.7948 52.2414 51.9452 52.9957 51.9452C53.7266 51.9452 54.0185 51.7327 54.1099 51.1336C54.2051 50.5135 54.5294 50.2956 55.4846 50.2097C56.5479 50.1145 56.7719 50.2357 56.9845 51.0214C57.1696 51.7053 57.4876 51.9452 58.2095 51.9452C58.9494 51.9452 59.1403 51.7926 59.0003 51.3139C58.8992 50.9665 58.3997 49.3433 57.8904 47.7066L56.9647 44.7306H55.595H54.2254L53.2997 47.7066ZM59.4828 45.4521C59.4828 45.978 59.7421 46.1735 60.4384 46.1735C61.3614 46.1735 61.3979 46.2691 61.5075 48.9692C61.6125 51.5563 61.6864 51.7735 62.4958 51.8803C63.3406 51.9914 63.3706 51.8961 63.3706 49.1084C63.3706 46.2294 63.3737 46.2211 64.4362 46.1071C65.0792 46.0386 65.5535 45.7424 65.6313 45.3619C65.7456 44.8027 65.4007 44.7306 62.6214 44.7306C59.7421 44.7306 59.4828 44.7901 59.4828 45.4521ZM67.319 47.6518C67.4434 50.1949 67.5802 50.6617 68.3753 51.2591C69.5447 52.1378 71.5811 52.1378 72.7506 51.2591C73.5456 50.6617 73.6825 50.1949 73.8069 47.6518L73.9499 44.7306H72.9368C71.9458 44.7306 71.9236 44.7836 71.9178 47.1655C71.9108 49.9868 71.6072 50.6119 70.3246 50.4435C69.4491 50.3288 69.39 50.1632 69.2831 47.5263C69.1719 44.7934 69.147 44.7306 68.1727 44.7306H67.1759L67.319 47.6518ZM76.2002 48.3379V51.9452H78.5328C80.5821 51.9452 80.8655 51.8601 80.8655 51.2454C80.8655 50.6974 80.5498 50.5218 79.4076 50.4337L77.9497 50.3219L77.8361 47.5263C77.7347 45.0271 77.6418 44.7306 76.9614 44.7306C76.2566 44.7306 76.2002 44.9968 76.2002 48.3379ZM87.2706 45.1815C87.0295 45.785 85.142 51.6801 85.142 51.8283C85.142 51.8925 85.5604 51.9452 86.072 51.9452C86.7395 51.9452 87.0704 51.6909 87.2457 51.0434C87.437 50.3353 87.7371 50.1416 88.641 50.1416C89.5449 50.1416 89.8451 50.3353 90.0363 51.0434C90.2117 51.6909 90.5425 51.9452 91.2101 51.9452C92.3682 51.9452 92.3667 51.8886 91.0989 47.9581L90.0573 44.7306H88.7538C88.0369 44.7306 87.3693 44.9337 87.2706 45.1815ZM93.6951 47.4523C93.6951 49.8613 93.8047 50.2761 94.6496 51.0596C95.5884 51.9311 97.1848 52.2028 98.5373 51.7212C99.6313 51.3316 100.304 49.5694 100.304 47.0934C100.304 44.8136 100.27 44.7306 99.3324 44.7306C98.3923 44.7306 98.36 44.8103 98.3546 47.1655C98.3476 49.9868 98.044 50.6119 96.7614 50.4435C95.8859 50.3288 95.8268 50.1632 95.7199 47.5263C95.6102 44.8262 95.5737 44.7306 94.6507 44.7306C93.7204 44.7306 93.6951 44.802 93.6951 47.4523ZM101.931 45.3619C102.009 45.7424 102.483 46.0386 103.126 46.1071C104.188 46.2211 104.192 46.2316 104.192 49.0832C104.192 51.7046 104.257 51.9452 104.97 51.9452C105.682 51.9452 105.747 51.7046 105.747 49.0832C105.747 46.2316 105.751 46.2211 106.813 46.1071C107.456 46.0386 107.93 45.7424 108.008 45.3619C108.122 44.8024 107.776 44.7306 104.97 44.7306C102.163 44.7306 101.817 44.8024 101.931 45.3619ZM16.3193 46.3434C16.9639 47.0638 16.9864 49.2257 16.357 49.9294C14.5997 51.8943 12.2041 48.76 13.8237 46.6147C14.5192 45.693 15.6296 45.5725 16.3193 46.3434ZM35.2531 46.3903C35.4949 46.9747 34.8114 47.6009 33.9207 47.611C33.6537 47.6139 33.4348 47.2106 33.4348 46.7146C33.4348 46.0487 33.6412 45.8128 34.2244 45.8128C34.659 45.8128 35.1217 46.0725 35.2531 46.3903ZM114.084 46.6147C115.243 48.1496 114.589 50.5023 113.004 50.5023C111.77 50.5023 111.19 49.8378 111.19 48.4223C111.19 45.9762 112.829 44.9524 114.084 46.6147ZM56.1374 47.7146C56.3232 48.4447 56.2272 48.7729 55.782 48.9313C54.8824 49.252 54.6931 48.8858 54.9924 47.4058C55.2801 45.982 55.728 46.1028 56.1374 47.7146ZM89.1802 47.3235C89.4508 48.5771 88.9108 49.454 88.2476 48.8382C87.8234 48.445 88.1589 46.1735 88.641 46.1735C88.8016 46.1735 89.0442 46.6908 89.1802 47.3235ZM35.5524 49.3205C35.7142 49.7112 35.5552 50.1149 35.124 50.4074C34.1808 51.0473 33.6517 50.8039 33.5063 49.6629C33.4021 48.848 33.5316 48.6986 34.3395 48.6986C34.8857 48.6986 35.4055 48.9652 35.5524 49.3205ZM118.188 49.0594C118.188 49.2578 118.888 49.4201 119.743 49.4201C120.598 49.4201 121.298 49.2578 121.298 49.0594C121.298 48.861 120.598 48.6986 119.743 48.6986C118.888 48.6986 118.188 48.861 118.188 49.0594ZM8.65027 49.3552C7.93143 49.4497 7.77553 49.6975 7.77553 50.7469C7.77553 51.9593 7.82918 52.0109 8.84389 51.7746C10.1774 51.464 10.095 51.591 9.78667 50.3194C9.57829 49.4594 9.34696 49.2632 8.65027 49.3552ZM36.9338 53.3658C36.9338 54.0789 41.6601 59.4812 43.695 61.0941C50.3773 66.3914 57.9156 68.7993 66.6751 68.4349C73.7042 68.1427 78.6331 66.5941 84.207 62.9266C87.0035 61.0865 91.572 56.643 92.8452 54.5244L93.7449 53.0274H90.7443H87.7437L85.6513 55.1727C81.7154 59.2082 75.5171 62.212 71.6169 61.9735C69.6971 61.8563 69.5575 61.6806 69.0222 58.7089L68.778 57.3562H65.3304H61.8827L61.361 59.6107L60.8392 61.8653L59.1449 61.9782C56.7866 62.1355 52.6357 60.8823 49.8995 59.1869C48.6359 58.4041 46.4992 56.6978 45.1513 55.3952L42.7009 53.0274H39.8173C38.2315 53.0274 36.9338 53.1796 36.9338 53.3658ZM46.2978 67.5158C43.6705 68.4176 43.6514 71.2093 46.2632 72.5065C47.3689 73.0552 47.4723 72.0999 46.3927 71.3121C45.245 70.4745 45.2563 70.1628 46.4751 69.0319C47.4187 68.1564 47.5073 68.1416 48.4299 68.7026C49.5255 69.3685 50.4503 69.1264 49.7599 68.3545C49.0686 67.5818 47.3316 67.1608 46.2978 67.5158ZM82.1224 67.5169C81.7916 67.8238 81.9303 68.3245 82.6733 69.5002C83.6923 71.1133 83.6763 72.1461 82.6329 72.1461C82.1453 72.1461 81.5773 71.4968 79.8418 68.9565C79.7952 68.8887 79.4842 68.9753 79.1506 69.1484C78.6285 69.4197 78.7206 69.7152 79.8053 71.2558C81.2041 73.242 82.2806 73.6327 83.8039 72.7067C85.0791 71.9315 85.0293 70.5528 83.6573 68.634C82.8405 67.492 82.4533 67.2099 82.1224 67.5169ZM75.591 69.2314C75.3915 69.4071 74.8783 69.6289 74.4507 69.7245C73.8512 69.8584 73.913 69.9078 74.7193 69.9399C75.2947 69.963 75.881 69.8086 76.0217 69.5968C76.3607 69.0878 76.0517 68.8252 75.591 69.2314ZM50.5775 70.0719C50.3944 70.5185 49.9624 71.5094 49.6176 72.2745C49.0212 73.5984 49.0585 74.3105 49.7241 74.3105C49.8909 74.3105 50.2268 73.9047 50.4702 73.4087C50.9748 72.381 51.2703 72.3113 52.2652 72.9863C52.8658 73.3939 52.9004 73.5901 52.4938 74.2946C52.1077 74.9641 52.1163 75.1813 52.5385 75.4237C53.2099 75.8086 53.3549 75.6344 54.4462 73.1342C55.1254 71.5776 55.2416 70.9525 54.9096 70.6444C54.5772 70.336 54.3478 70.473 53.996 71.1895C53.5061 72.1872 53.0408 72.3478 52.1516 71.8251C51.7874 71.6108 51.7065 71.1664 51.8911 70.3876C52.1034 69.4904 52.0303 69.2603 51.5343 69.2603C51.191 69.2603 50.7606 69.6253 50.5775 70.0719ZM75.3254 70.5935C74.5906 70.7692 74.4413 72.2161 74.8947 74.7614C75.1645 76.2765 76.2002 76.6553 76.2002 75.2387C76.2002 74.1756 77.2728 73.8509 78.2506 74.6182C78.7031 74.9732 79.0717 75.037 79.3228 74.804C79.574 74.571 79.1638 73.7741 78.1297 72.4859C76.4506 70.394 76.3743 70.3425 75.3254 70.5935ZM56.2186 73.4184C55.4535 76.2437 55.4492 76.4749 56.163 76.4749C56.6995 76.4749 57.1902 75.2971 57.7652 72.6291C57.9362 71.8359 57.8406 71.4708 57.4223 71.3218C56.9783 71.1638 56.6953 71.6566 56.2186 73.4184ZM60.3762 72.1768C58.9548 72.6648 58.9156 73.6731 60.2763 74.7311C61.5631 75.7314 61.5355 76.67 60.2312 76.2859C59.2526 75.9976 58.4249 76.4489 59.1496 76.8753C60.1612 77.4698 62.1525 77.2386 62.593 76.4749C63.107 75.5839 62.5483 74.4606 61.4271 74.1301C60.2238 73.7759 60.4349 72.7918 61.6844 72.9318C62.2536 72.9956 62.7858 72.8654 62.8671 72.6421C63.0537 72.1277 61.4127 71.8211 60.3762 72.1768ZM71.2802 73.4087C71.412 74.3015 71.4598 75.032 71.386 75.032C71.3121 75.032 70.767 74.3826 70.1741 73.589C69.4172 72.5754 68.8154 72.1461 68.1513 72.1461C67.4368 72.1461 67.2529 72.3002 67.3983 72.7774C67.5044 73.1244 67.7074 74.2611 67.85 75.3025C68.0343 76.6509 68.2789 77.1963 68.6995 77.1963C69.1796 77.1963 69.2411 76.8915 69.028 75.5731C68.8838 74.6803 68.9079 73.9541 69.0813 73.9595C69.2547 73.9649 69.8254 74.6142 70.3495 75.4024C71.4322 77.0308 72.7012 77.3446 72.7012 75.9843C72.7012 73.7893 72.1868 71.7854 71.6235 71.7854C71.1562 71.7854 71.0878 72.1075 71.2802 73.4087ZM76.9777 73.092C76.9777 73.3654 76.7153 73.589 76.3946 73.589C76.0244 73.589 75.8114 73.2435 75.8114 72.6432C75.8114 71.8431 75.9016 71.7663 76.3946 72.1461C76.7153 72.3932 76.9777 72.8189 76.9777 73.092ZM64.5369 74.8779C64.5369 77.1574 64.6368 77.5906 65.1407 77.4932C65.4727 77.429 65.7351 77.2551 65.7238 77.1062C65.7125 76.9572 65.7032 75.7805 65.7032 74.4909C65.7032 72.6472 65.5784 72.1461 65.12 72.1461C64.6531 72.1461 64.5369 72.6901 64.5369 74.8779ZM60.1196 78.4589C59.9835 78.7886 60.1192 79 60.4668 79C60.7809 79 61.0379 78.7565 61.0379 78.4589C61.0379 78.1613 60.8816 77.9178 60.6907 77.9178C60.4998 77.9178 60.2428 78.1613 60.1196 78.4589Z" fill="white"/>
</svg>
