<?xml version="1.0" encoding="UTF-8" standalone="no"?><svg width="103" height="61" viewBox="0 0 103 61" fill="none" xmlns="http://www.w3.org/2000/svg">
<path fill-rule="evenodd" clip-rule="evenodd" d="M45.9903 0.199435C45.0844 0.326448 45.06 0.423936 45.3575 2.71575C45.5432 4.14689 45.5685 4.17808 46.5347 4.17808C47.0776 4.17808 47.736 4.10204 47.998 4.00901C48.832 3.71292 48.511 3.34247 47.4205 3.34247C46.2354 3.34247 45.9039 2.60852 47.0206 2.45671C48.007 2.32246 48.0365 1.72499 47.0619 1.62165C45.9759 1.50662 45.9639 1.00163 47.0441 0.886867C47.518 0.836173 47.8721 0.627826 47.8721 0.399424C47.8721 0.00389903 47.5957 -0.0253461 45.9903 0.199435ZM51.184 1.94977C51.184 3.49733 51.2774 3.89954 51.6356 3.89954C51.9166 3.89954 52.0873 3.6366 52.0873 3.2032C52.0873 2.62634 52.2318 2.50685 52.9303 2.50685C53.9507 2.50685 54.4959 2.05422 54.4959 1.20747C54.4959 0.437027 53.686 0 52.2577 0H51.184V1.94977ZM56.1796 0.51669C55.9754 0.823919 55.3107 4.1895 55.4335 4.29395C55.4973 4.34855 56.1416 4.48364 56.8651 4.59422C57.9069 4.75354 58.1526 4.7165 58.046 4.41707C57.9719 4.209 57.6169 3.9987 57.2575 3.94968C56.8486 3.89425 56.6035 3.66167 56.6035 3.32993C56.6035 2.88399 56.7537 2.82717 57.5471 2.97396C58.2769 3.10905 58.4591 3.06003 58.3516 2.75809C58.2748 2.54334 57.918 2.32747 57.5585 2.27845C57.1987 2.2297 56.9046 1.99601 56.9046 1.75953C56.9046 1.44005 57.137 1.36094 57.8078 1.45202C59.1775 1.63809 58.9288 0.954552 57.5049 0.620027C56.8417 0.464324 56.2452 0.417809 56.1796 0.51669ZM41.7752 1.02001C40.2394 1.45509 39.9302 1.85646 41.021 1.99991C41.5563 2.07066 41.7848 2.3946 42.1208 3.56028C42.3554 4.37389 42.6926 4.98445 42.8751 4.92596C43.2345 4.81064 43.2412 4.06137 42.8964 2.43721C42.7134 1.57347 42.7597 1.39269 43.1659 1.39269C43.436 1.39269 43.657 1.20468 43.657 0.974886C43.657 0.488836 43.6503 0.489115 41.7752 1.02001ZM53.2808 0.962631C53.6944 1.42389 53.4596 1.94977 52.84 1.94977C52.298 1.94977 51.9897 1.47236 52.2017 0.961517C52.4154 0.445942 52.8174 0.446498 53.2808 0.962631ZM37.4032 2.46145C37.1072 2.63526 37.0861 3.11546 37.3098 4.57584C37.4688 5.61534 37.6657 6.52756 37.7476 6.60304C38.024 6.85874 38.5386 6.37715 38.5386 5.86268C38.5386 5.19363 39.3141 4.93515 40.0485 5.35936C40.4266 5.57802 40.7331 5.60086 40.9219 5.42454C41.1098 5.24934 40.7292 4.63461 39.8486 3.69064C38.482 2.2258 38.117 2.04252 37.4032 2.46145ZM61.6487 3.88645C60.4592 5.24127 60.3044 5.54237 60.7214 5.69055C60.9969 5.78832 61.317 5.7262 61.4329 5.55267C61.7713 5.04629 62.7673 5.38248 62.8684 6.03761C62.9859 6.79468 63.7488 7.09494 63.9466 6.46182C64.0282 6.20167 64.1848 5.27915 64.2944 4.41233C64.4726 3.00711 64.4277 2.80294 63.8807 2.5322C63.5432 2.36507 63.224 2.23555 63.1719 2.24419C63.1195 2.25282 62.4343 2.99179 61.6487 3.88645ZM38.8905 4.52096C38.5885 4.80034 38.457 4.78725 38.2296 4.45439C38.0734 4.22571 37.9436 3.79147 37.9409 3.48953C37.9367 2.9631 37.9641 2.96588 38.6021 3.5561C39.1356 4.0494 39.1928 4.24131 38.8905 4.52096ZM63.5284 3.90818C63.5284 4.46971 62.77 4.96189 62.4132 4.6321C62.2515 4.48225 63.1454 3.34247 63.4245 3.34247C63.4817 3.34247 63.5284 3.59705 63.5284 3.90818ZM33.649 4.25997C32.3829 4.95075 32.1053 5.6769 33.2049 5.42176C33.7727 5.28973 34.0121 5.45769 34.5739 6.383C35.335 7.63586 35.6816 7.91607 36.1431 7.6523C36.3416 7.53865 36.1597 7.00191 35.65 6.19749C34.9966 5.16606 34.9078 4.82541 35.1851 4.41484C35.8658 3.40597 35.3158 3.35054 33.649 4.25997ZM66.3071 4.9215C65.5902 5.18834 65.0127 6.59747 65.3168 7.33755C65.5824 7.98376 66.6982 8.91324 67.2085 8.91324C67.6656 8.91324 67.4328 8.29906 66.7948 7.82109C66.2959 7.44729 66.1945 7.16263 66.3523 6.58076C66.6052 5.64821 67.2675 5.3875 68.3888 5.77912C69.4618 6.15376 69.7873 5.75628 68.8859 5.17191C68.2289 4.7463 67.0785 4.63461 66.3071 4.9215ZM30.1028 6.64984L29.0704 7.44701L30.3759 9.0124L31.6814 10.5778L32.5747 9.98952C33.5017 9.37868 33.9308 8.73581 33.6098 8.43861C33.5075 8.34419 33.1754 8.47482 32.8713 8.72913C31.7765 9.64608 31.1226 9.04109 32.1138 8.02832C32.799 7.3278 32.4332 7.09745 31.517 7.65258C30.4777 8.28263 30.0393 7.63586 31.0118 6.9072C31.455 6.57519 31.6052 6.28718 31.4228 6.11838C31.2403 5.94959 30.7583 6.14345 30.1028 6.64984ZM46.6678 6.59942C35.8011 8.28932 27.3094 16.1842 25.6044 26.1826C25.2563 28.2229 25.206 30.8228 25.4842 32.3801L25.6709 33.4247H27.8896H30.1082V32.3542C30.1082 31.7657 30.4229 30.7334 30.8077 30.0602C31.6745 28.5441 34.0079 27.2968 35.9775 27.2968H37.262L38.4491 24.742L39.6366 22.1873L38.6358 20.65C37.8337 19.4175 37.6353 18.8167 37.6353 17.6201C37.6353 15.7611 38.1152 14.8865 39.9859 13.3364C41.6283 11.9755 44.7339 10.7301 47.2573 10.4204L48.8488 10.2252L48.6643 8.80322C48.5625 8.02108 48.4782 7.16207 48.477 6.89384C48.4743 6.40639 48.1976 6.36155 46.6678 6.59942ZM52.5732 7.28992C52.0707 10.3483 52.0662 10.3059 52.8909 10.3059C54.1036 10.3059 57.1807 11.1204 58.7538 11.858C63.6458 14.1512 64.8502 17.8766 61.8986 21.5868C61.497 22.092 61.5611 22.3775 62.5881 24.6507L63.7208 27.1575L65.356 27.3227C67.1866 27.5077 68.4755 28.0391 69.4603 29.0151C70.3196 29.8663 71.0555 31.5111 71.0555 32.5801V33.4247H73.272H75.4886L75.684 31.4053C76.0585 27.535 74.6998 21.723 72.65 18.4276C68.614 11.9393 61.9242 7.67959 53.9871 6.54371C52.7397 6.36517 52.7238 6.37352 52.5732 7.28992ZM70.6159 6.66683C70.4979 6.84342 70.5572 7.16123 70.7472 7.37348C71.0199 7.67737 70.8564 8.00131 69.9737 8.90544C69.0873 9.81292 68.9319 10.1218 69.2279 10.3878C69.522 10.6522 69.837 10.4772 70.705 9.56781C71.6215 8.60741 71.8949 8.46452 72.3206 8.72244C73.4009 9.37673 73.2284 8.56423 72.0572 7.48072C71.2512 6.73479 70.7568 6.45569 70.6159 6.66683ZM27.2224 8.95168C27.0992 9.13607 27.6653 9.85247 28.5751 10.6641C29.7572 11.7181 30.2248 11.9808 30.4873 11.7379C30.7496 11.4953 30.4726 11.0767 29.3537 10.0257C27.7908 8.55755 27.5623 8.44251 27.2224 8.95168ZM72.6428 10.8054C71.4968 11.7599 71.1413 12.2231 71.3352 12.5083C71.5453 12.8184 71.9548 12.6209 73.2892 11.5663C74.6272 10.509 74.9063 10.1533 74.6353 9.85136C74.4475 9.64162 74.2764 9.47561 74.2554 9.4823C74.234 9.48898 73.5087 10.0845 72.6428 10.8054ZM25.5303 10.7867C24.1736 12.2156 25.0522 14.4484 26.9815 14.4751C27.7562 14.486 29.205 13.4804 29.205 12.9317C29.205 12.4148 28.7754 12.4242 28.3018 12.9521C27.8134 13.4966 26.6642 13.4863 26.065 12.9323C25.4607 12.3733 25.4683 12.0084 26.0966 11.3658C26.4332 11.0218 26.501 10.7569 26.3005 10.5714C26.0996 10.3856 25.8428 10.4575 25.5303 10.7867ZM68.0877 11.1109C67.8029 11.278 67.7803 11.4081 68.0124 11.541C68.3945 11.7594 68.9479 11.5131 68.9479 11.1251C68.9479 10.8012 68.6251 10.7959 68.0877 11.1109ZM74.6191 12.3362C73.8977 12.8443 73.2696 13.5375 73.2151 13.8857C73.0808 14.7456 73.938 15.8767 74.7242 15.8767C75.5696 15.8767 77.9804 14.562 77.9804 14.101C77.9804 13.3721 77.5685 13.4089 76.3015 14.2506C74.9885 15.1227 74.0663 15.1642 74.0663 14.3509C74.0663 14.1147 74.6031 13.5782 75.2592 13.1582C75.9152 12.7384 76.4572 12.2457 76.4635 12.0632C76.4876 11.361 75.8746 11.4518 74.6191 12.3362ZM22.4171 15.1678C21.1143 16.3728 21.7366 18.107 23.6296 18.5465C25.1326 18.8955 26.5473 17.3449 26.0494 15.8937C25.8419 15.2884 24.4648 14.484 23.6362 14.484C23.3721 14.484 22.8236 14.7918 22.4171 15.1678ZM24.7086 15.8865C25.399 16.2282 25.4815 17.2193 24.8387 17.4474C24.1787 17.6816 22.8835 17.3182 22.6866 16.8432C22.2473 15.7845 23.4004 15.2389 24.7086 15.8865ZM77.0931 16.5976C75.1375 17.4187 75.0686 17.4725 75.4808 17.8538C75.7072 18.0632 76.1645 17.9786 77.0413 17.5649C78.5033 16.8747 78.5783 17.0611 77.3659 18.373C76.5153 19.2938 76.2579 20.0395 76.6616 20.4133C76.7646 20.5083 77.679 20.201 78.6939 19.7303C80.8783 18.7175 80.7997 18.7727 80.563 18.4189C80.4423 18.2379 80.0082 18.2808 79.3382 18.5395C77.8614 19.1105 77.8247 19.0632 78.8318 17.8872C79.5183 17.085 79.6646 16.7193 79.4442 16.3552C79.0844 15.7606 79.0865 15.7603 77.0931 16.5976ZM20.059 19.3696C19.76 20.0902 19.8407 21.0291 20.2327 21.3918C20.7648 21.884 21.4024 21.8007 22.1633 21.1397C22.9762 20.4333 23.6434 20.6523 23.1701 21.47C22.7263 22.2377 23.1566 22.7962 23.681 22.1327C24.4575 21.1503 24.0276 19.4977 22.9958 19.4977C22.7931 19.4977 22.1979 19.832 21.6731 20.2406L20.7187 20.9834L20.822 20.0551C20.9306 19.0785 20.3836 18.5869 20.059 19.3696ZM79.2374 21.008C77.4137 21.5765 77.2111 21.7168 77.4309 22.2605C77.5113 22.4597 81.2053 21.5979 81.5458 21.3004C81.6024 21.2511 81.5346 21.0316 81.3952 20.8124C81.18 20.4743 80.8548 20.5038 79.2374 21.008ZM40.3201 24.6888C39.017 27.4687 38.9688 27.2118 40.8861 27.7205C43.4272 28.3948 45.0377 29.3508 45.4427 30.4251C45.7085 31.1298 45.8473 31.2443 46.0566 30.9309C46.2053 30.7083 46.2517 30.1763 46.1593 29.7488C45.9193 28.6388 46.5751 27.3951 47.7571 26.7194C48.9199 26.0545 49.1346 25.4529 48.0979 25.7637C47.7252 25.8757 47.1489 25.9682 46.8168 25.9693C46.1526 25.9718 42.6947 24.5217 41.6286 23.7939C40.9668 23.3421 40.9439 23.358 40.3201 24.6888ZM58.5605 24.2476C56.9094 25.3473 54.7103 26.0033 53.4244 25.7802C52.1505 25.559 52.1017 25.8818 53.2865 26.6924C54.4505 27.4884 55.2002 28.8444 54.9966 29.7858C54.9084 30.1931 54.9569 30.7064 55.1038 30.9264C55.3082 31.2323 55.4814 31.0824 55.8388 30.2914C56.3524 29.1538 57.4173 28.5305 60.2466 27.7102L61.9324 27.2216L61.0951 25.3855C60.6347 24.3755 60.1469 23.5259 60.0115 23.4975C59.8757 23.4691 59.2229 23.8067 58.5605 24.2476ZM48.4038 27.831C47.5596 28.5288 47.4205 28.8277 47.4205 29.9429C47.4205 31.0682 47.5572 31.3551 48.4421 32.0866C49.3333 32.823 49.6316 32.9135 50.7755 32.7943C52.3056 32.6347 52.9348 32.2225 53.4759 31.025C53.7622 30.3914 53.7875 29.8883 53.5692 29.1577C52.9222 26.989 50.2522 26.3033 48.4038 27.831ZM3.01113 30.9521C1.12575 31.6476 0 33.3077 0 35.3923C0 37.7584 1.35035 39.4227 3.68826 39.9377C4.47409 40.111 4.51624 40.0695 4.51624 39.1219C4.51624 38.3548 4.30729 37.9612 3.61299 37.4209C2.83078 36.8117 2.70974 36.5306 2.70974 35.3221C2.70974 34.1308 2.84192 33.8127 3.61299 33.1461C4.24075 32.6035 4.51624 32.1022 4.51624 31.5025C4.51624 30.5833 4.26243 30.4905 3.01113 30.9521ZM6.07795 31.5445C6.2032 32.7461 7.34972 33.0016 7.6502 31.8949C7.90371 30.9601 7.67038 30.6393 6.73763 30.6393C6.06832 30.6393 5.99395 30.7409 6.07795 31.5445ZM99.6583 33.4247V36.21H98.6045C97.4279 36.21 97.3412 36.0003 98.0177 34.7901C98.3122 34.2633 98.451 33.4199 98.394 32.506L98.3034 31.0571L96.5532 33.787C95.5082 35.4173 94.841 36.7638 94.8973 37.1295C94.9831 37.6866 95.1875 37.7493 97.1569 37.8236L99.3223 37.905L99.415 38.9378C99.5053 39.9425 99.5403 39.9703 100.712 39.9703C101.896 39.9703 101.915 39.9542 101.816 39.045C101.735 38.2994 101.838 38.0902 102.343 37.9679C103.205 37.7596 103.224 36.3365 102.368 36.1293C101.819 35.9964 101.766 35.7493 101.766 33.3116V30.6393H100.712H99.6583V33.4247ZM10.9895 34.4667C7.81791 35.1396 8.2876 40.1096 11.523 40.1096C13.6095 40.1096 14.984 38.462 14.5546 36.4755C14.2563 35.0959 12.5515 34.1352 10.9895 34.4667ZM86.2086 34.6664C85.0118 35.148 84.6042 35.8407 84.6042 37.3927C84.6042 39.308 85.9861 40.3497 88.0516 39.9912C89.2993 39.7748 90.0011 39.0615 90.2257 37.7813C90.4741 36.3649 89.8349 35.1109 88.6266 34.6438C87.4322 34.1823 87.4112 34.1823 86.2086 34.6664ZM16.2585 36.0151C16.2585 36.8457 16.1705 38.1178 16.0634 38.842C15.8749 40.1135 15.8932 40.1558 16.5902 40.0647C17.2629 39.9767 17.3225 39.8274 17.4628 37.8813C17.6187 35.7173 17.7374 35.7811 18.3696 38.3687C18.6448 39.4943 18.8571 39.8311 19.291 39.8311C19.7206 39.8311 19.9687 39.4506 20.3354 38.2295C21.0971 35.6909 21.2179 35.6566 21.3127 37.9509C21.4003 40.0673 21.4175 40.1096 22.1832 40.1096C22.9389 40.1096 22.9578 40.0681 22.7727 38.8172C22.6673 38.1066 22.5812 36.8532 22.5812 36.0318V34.5388H21.5476C20.8223 34.5388 20.4685 34.6842 20.3613 35.0263C20.2773 35.2945 20.056 36.0591 19.8696 36.7256C19.6833 37.3922 19.4596 37.8718 19.3728 37.7913C19.2858 37.7108 19.0552 36.9774 18.8601 36.1616C18.5154 34.7182 18.4753 34.6759 17.3821 34.5917L16.2585 34.5051V36.0151ZM24.3877 37.3242V40.1096H25.723C27.5081 40.1096 28.5375 39.7116 28.9572 38.8589C29.252 38.2606 29.2098 38.0601 28.679 37.5303C28.1446 36.9972 28.1157 36.854 28.4788 36.5474C29.084 36.036 29.0045 35.1652 28.3216 34.8271C28.0013 34.6686 26.9851 34.5388 26.0635 34.5388H24.3877V37.3242ZM30.7104 37.3437C30.7104 40.0929 30.7237 40.1466 31.3878 40.0595C32.0304 39.9748 32.0698 39.8308 32.1514 37.2546L32.2375 34.5388H31.474H30.7104V37.3437ZM33.7857 37.2546C33.8652 39.7581 33.9187 39.9703 34.4739 39.9703C35.0029 39.9703 35.0827 39.7675 35.1315 38.2991C35.1619 37.3799 35.1971 36.5025 35.2095 36.3493C35.2218 36.1961 35.7222 36.9794 36.3217 38.0902C37.215 39.7464 37.5396 40.1096 38.1255 40.1096C38.8294 40.1096 38.8396 40.0698 38.8396 37.3242C38.8396 34.7246 38.7996 34.5388 38.2375 34.5388C37.7015 34.5388 37.6332 34.7302 37.6172 36.2797L37.5992 38.0205L36.6496 36.2797C35.7716 34.6697 35.625 34.5388 34.6998 34.5388H33.6996L33.7857 37.2546ZM41.2772 36.8368C40.8828 38.1005 40.4959 39.3539 40.4176 39.6221C40.3089 39.9934 40.4577 40.1096 41.0418 40.1096C41.6078 40.1096 41.8339 39.9455 41.9047 39.4829C41.9784 39.0041 42.2295 38.8358 42.9693 38.7695C43.7927 38.696 43.9662 38.7896 44.1309 39.3963C44.2742 39.9244 44.5205 40.1096 45.0796 40.1096C45.6525 40.1096 45.8004 39.9918 45.692 39.6221C45.6137 39.3539 45.2268 38.1005 44.8324 36.8368L44.1155 34.5388H43.0548H41.9941L41.2772 36.8368ZM46.0656 35.0959C46.0656 35.502 46.2664 35.653 46.8057 35.653C47.5204 35.653 47.5488 35.7268 47.6337 37.8116C47.7149 39.8093 47.7722 39.977 48.399 40.0595C49.0533 40.1452 49.0764 40.0717 49.0764 37.9192C49.0764 35.6961 49.0788 35.6897 49.9017 35.6017C50.3997 35.5488 50.767 35.3201 50.8272 35.0263C50.9158 34.5945 50.6487 34.5388 48.4963 34.5388C46.2664 34.5388 46.0656 34.5848 46.0656 35.0959ZM52.1342 36.7944C52.2306 38.7581 52.3366 39.1186 52.9523 39.5798C53.8579 40.2583 55.435 40.2583 56.3407 39.5798C56.9564 39.1186 57.0624 38.7581 57.1587 36.7944L57.2695 34.5388H56.4849C55.7174 34.5388 55.7003 34.5798 55.6957 36.419C55.6903 38.5974 55.4552 39.0801 54.4619 38.95C53.7839 38.8615 53.7381 38.7336 53.6553 36.6975C53.5692 34.5873 53.5499 34.5388 52.7954 34.5388H52.0234L52.1342 36.7944ZM59.0122 37.3242V40.1096H60.8187C62.4057 40.1096 62.6252 40.0439 62.6252 39.5692C62.6252 39.1461 62.3807 39.0105 61.4961 38.9425L60.367 38.8562L60.2791 36.6975C60.2005 34.7678 60.1286 34.5388 59.6017 34.5388C59.0558 34.5388 59.0122 34.7444 59.0122 37.3242ZM67.5855 34.887C67.3988 35.353 65.9371 39.9049 65.9371 40.0193C65.9371 40.0689 66.261 40.1096 66.6572 40.1096C67.1742 40.1096 67.4304 39.9132 67.5662 39.4132C67.7144 38.8665 67.9468 38.7169 68.6468 38.7169C69.3468 38.7169 69.5793 38.8665 69.7274 39.4132C69.8632 39.9132 70.1194 40.1096 70.6364 40.1096C71.5333 40.1096 71.5321 40.0659 70.5502 37.0309L69.7436 34.5388H68.7341C68.1789 34.5388 67.662 34.6956 67.5855 34.887ZM72.5609 36.6404C72.5609 38.5005 72.6458 38.8208 73.3 39.4258C74.0271 40.0987 75.2634 40.3085 76.3109 39.9366C77.1581 39.6358 77.6793 38.2751 77.6793 36.3632C77.6793 34.6029 77.6528 34.5388 76.9266 34.5388C76.1986 34.5388 76.1736 34.6004 76.1693 36.419C76.1639 38.5974 75.9288 39.0801 74.9355 38.95C74.2575 38.8615 74.2117 38.7336 74.1289 36.6975C74.044 34.6126 74.0157 34.5388 73.3009 34.5388C72.5804 34.5388 72.5609 34.594 72.5609 36.6404ZM78.9393 35.0263C78.9995 35.3201 79.3668 35.5488 79.8648 35.6017C80.6871 35.6897 80.6901 35.6978 80.6901 37.8997C80.6901 39.9238 80.7407 40.1096 81.2923 40.1096C81.8438 40.1096 81.8944 39.9238 81.8944 37.8997C81.8944 35.6978 81.8974 35.6897 82.7197 35.6017C83.2177 35.5488 83.585 35.3201 83.6452 35.0263C83.7337 34.5942 83.4655 34.5388 81.2923 34.5388C79.1191 34.5388 78.8508 34.5942 78.9393 35.0263ZM12.6382 35.7842C13.1374 36.3404 13.1549 38.0097 12.6674 38.5531C11.3065 40.0703 9.45128 37.6501 10.7056 35.9936C11.2442 35.282 12.1041 35.1889 12.6382 35.7842ZM27.3013 35.8204C27.4885 36.2716 26.9592 36.7551 26.2694 36.7629C26.0626 36.7652 25.8931 36.4538 25.8931 36.0708C25.8931 35.5566 26.053 35.3744 26.5046 35.3744C26.8412 35.3744 27.1995 35.575 27.3013 35.8204ZM88.3505 35.9936C89.2481 37.1788 88.7416 38.9954 87.5141 38.9954C86.5585 38.9954 86.1096 38.4824 86.1096 37.3894C86.1096 35.5006 87.3789 34.7101 88.3505 35.9936ZM43.4748 36.8429C43.6187 37.4067 43.5443 37.6601 43.1996 37.7824C42.5029 38.03 42.3563 37.7473 42.5881 36.6045C42.8109 35.5051 43.1578 35.5984 43.4748 36.8429ZM69.0644 36.541C69.274 37.5089 68.8558 38.186 68.3421 37.7105C68.0136 37.4069 68.2735 35.653 68.6468 35.653C68.7711 35.653 68.959 36.0524 69.0644 36.541ZM27.5331 38.0829C27.6583 38.3846 27.5352 38.6963 27.2013 38.9222C26.4709 39.4163 26.0611 39.2283 25.9485 38.3473C25.8678 37.7181 25.9681 37.6027 26.5937 37.6027C27.0167 37.6027 27.4193 37.8086 27.5331 38.0829ZM91.5291 37.8813C91.5291 38.0345 92.071 38.1598 92.7334 38.1598C93.3958 38.1598 93.9377 38.0345 93.9377 37.8813C93.9377 37.7281 93.3958 37.6027 92.7334 37.6027C92.071 37.6027 91.5291 37.7281 91.5291 37.8813ZM6.69908 38.1097C6.14238 38.1827 6.02165 38.374 6.02165 39.1843C6.02165 40.1205 6.0632 40.1603 6.84902 39.9778C7.88174 39.738 7.81791 39.8361 7.57915 38.8542C7.41777 38.1902 7.23862 38.0387 6.69908 38.1097ZM28.6028 41.2065C28.6028 41.7571 32.2631 45.9285 33.839 47.1739C39.014 51.2642 44.852 53.1235 51.6356 52.8422C57.0792 52.6165 60.8963 51.4208 65.213 48.5889C67.3786 47.168 70.9167 43.737 71.9027 42.1011L72.5994 40.9452H70.2757H67.9519L66.3315 42.6017C63.2833 45.7177 58.4832 48.0371 55.4627 47.853C53.976 47.7624 53.8679 47.6268 53.4533 45.3322L53.2642 44.2877H50.5942H47.9242L47.5201 46.0285L47.1161 47.7694L45.804 47.8566C43.9776 47.978 40.763 47.0104 38.6439 45.7013C37.6654 45.0968 36.0107 43.7793 34.9668 42.7735L33.0691 40.9452H30.836C29.6078 40.9452 28.6028 41.0628 28.6028 41.2065ZM35.8547 52.1324C33.82 52.8288 33.8052 54.9844 35.8279 55.986C36.6842 56.4097 36.7643 55.6721 35.9282 55.0638C35.0394 54.417 35.0481 54.1764 35.992 53.3031C36.7227 52.6271 36.7914 52.6157 37.5058 53.0488C38.3543 53.563 39.0706 53.3761 38.5358 52.78C38.0005 52.1834 36.6553 51.8584 35.8547 52.1324ZM63.5986 52.1333C63.3423 52.3703 63.4498 52.7569 64.0252 53.6647C64.8143 54.9103 64.802 55.7078 63.9939 55.7078C63.6163 55.7078 63.1764 55.2064 61.8324 53.2449C61.7963 53.1926 61.5554 53.2594 61.2971 53.3931C60.8927 53.6026 60.9641 53.8307 61.8041 55.0203C62.8874 56.554 63.7211 56.8556 64.9007 56.1406C65.8883 55.542 65.8497 54.4775 64.7872 52.9959C64.1547 52.1141 63.8548 51.8962 63.5986 52.1333ZM58.5404 53.4572C58.3859 53.5928 57.9885 53.7641 57.6573 53.8379C57.193 53.9413 57.2409 53.9794 57.8653 54.0042C58.3109 54.022 58.765 53.9028 58.874 53.7393C59.1365 53.3463 58.8972 53.1435 58.5404 53.4572ZM39.169 54.1062C39.0272 54.451 38.6927 55.2161 38.4256 55.8069C37.9638 56.8292 37.9927 57.379 38.5081 57.379C38.6373 57.379 38.8974 57.0656 39.0859 56.6827C39.4767 55.8891 39.7056 55.8353 40.476 56.3565C40.9412 56.6712 40.968 56.8228 40.6531 57.3667C40.3541 57.8837 40.3607 58.0514 40.6877 58.2386C41.2077 58.5358 41.32 58.4012 42.1651 56.4707C42.6911 55.2688 42.7811 54.7861 42.524 54.5482C42.2666 54.3101 42.0889 54.4159 41.8164 54.9691C41.4371 55.7395 41.0767 55.8635 40.3881 55.4599C40.106 55.2944 40.0434 54.9513 40.1864 54.3499C40.3508 53.6572 40.2942 53.4795 39.91 53.4795C39.6441 53.4795 39.3108 53.7613 39.169 54.1062ZM58.3347 54.5089C57.7657 54.6446 57.6501 55.7618 58.0011 57.7272C58.2101 58.897 59.0122 59.1895 59.0122 58.0957C59.0122 57.2748 59.8428 57.0241 60.6001 57.6166C60.9505 57.8907 61.236 57.94 61.4305 57.76C61.625 57.5801 61.3073 56.9648 60.5064 55.9701C59.2061 54.3549 59.147 54.3151 58.3347 54.5089ZM43.5377 56.6902C42.9452 58.8717 42.9419 59.0502 43.4947 59.0502C43.9102 59.0502 44.2901 58.1408 44.7354 56.0807C44.8679 55.4682 44.7938 55.1863 44.4699 55.0713C44.126 54.9493 43.9069 55.3298 43.5377 56.6902ZM46.7575 55.7314C45.6567 56.1083 45.6263 56.8868 46.6801 57.7038C47.6767 58.4762 47.6553 59.2009 46.6452 58.9043C45.8874 58.6817 45.2464 59.0302 45.8076 59.3594C46.591 59.8184 48.1331 59.6399 48.4743 59.0502C48.8723 58.3622 48.4397 57.4949 47.5713 57.2397C46.6395 56.9662 46.803 56.2064 47.7706 56.3144C48.2114 56.3637 48.6236 56.2632 48.6865 56.0908C48.8311 55.6936 47.5602 55.4568 46.7575 55.7314ZM55.202 56.6827C55.304 57.372 55.3411 57.9361 55.2839 57.9361C55.2267 57.9361 54.8045 57.4347 54.3454 56.8219C53.7592 56.0392 53.2931 55.7078 52.7789 55.7078C52.2255 55.7078 52.083 55.8267 52.1957 56.1952C52.2778 56.4632 52.435 57.3408 52.5455 58.145C52.6882 59.1862 52.8776 59.6073 53.2034 59.6073C53.5752 59.6073 53.6228 59.3719 53.4578 58.3539C53.3461 57.6645 53.3648 57.1038 53.499 57.108C53.6333 57.1122 54.0753 57.6135 54.4812 58.2221C55.3197 59.4795 56.3024 59.7218 56.3024 58.6714C56.3024 56.9765 55.9041 55.4292 55.4678 55.4292C55.1059 55.4292 55.0529 55.678 55.202 56.6827ZM59.6143 56.4381C59.6143 56.6492 59.4111 56.8219 59.1627 56.8219C58.8761 56.8219 58.7111 56.5551 58.7111 56.0916C58.7111 55.4738 58.7809 55.4145 59.1627 55.7078C59.4111 55.8986 59.6143 56.2272 59.6143 56.4381ZM49.9797 57.8171C49.9797 59.5772 50.0571 59.9118 50.4473 59.8365C50.7044 59.787 50.9076 59.6527 50.8989 59.5377C50.8902 59.4226 50.8829 58.514 50.8829 57.5183C50.8829 56.0947 50.7863 55.7078 50.4313 55.7078C50.0697 55.7078 49.9797 56.1278 49.9797 57.8171ZM46.5588 60.5822C46.4534 60.8368 46.5585 61 46.8277 61C47.0709 61 47.2699 60.812 47.2699 60.5822C47.2699 60.3524 47.1489 60.1644 47.0011 60.1644C46.8532 60.1644 46.6542 60.3524 46.5588 60.5822Z" fill="#0B77EF"/>
</svg>
