<?xml version="1.0" encoding="UTF-8" standalone="no"?><svg width="172" height="80" viewBox="0 0 172 80" fill="none" xmlns="http://www.w3.org/2000/svg">
<path d="M31.1927 51.0657C22.9321 51.0657 18 47.3162 18 41.0354C18 33.6376 24.6713 31 30.9144 31C34.0807 31 39.5908 31.5975 42.3211 35.4241V31.3308H56.3221C58.647 31.3308 62.1111 31.3308 64.2298 33.3288V31.3308H79.0033C80.7003 31.3308 84.4595 31.6176 86.0372 34.0255V31.3308H94.3341V50.74H86.0372V48.8406C83.999 50.5013 80.7736 50.7394 77.8382 50.7394H58.5653L58.4874 50.6563L51.3076 43.0646H50.7562V50.7394H42.3211V46.6629C39.8042 50.2762 34.9486 51.0657 31.1927 51.0657ZM30.9137 31.5287C24.9268 31.5287 18.5287 34.0262 18.5287 41.0354C18.5287 49.6119 27.3848 50.5376 31.1933 50.5376C35.0693 50.5376 40.1525 49.6826 42.3542 45.6049L42.8505 44.6863V50.2113H50.2295V42.5359H51.5366L51.6144 42.6196L58.7936 50.2113H77.8382C80.8917 50.2113 84.2623 49.9557 86.1124 48.0576L86.5665 47.5938V50.2113H93.806V31.8595H86.5665V42.6423L86.1254 42.253C85.3028 41.5226 84.032 40.9971 82.348 40.6897L81.1466 40.4704L82.3305 40.1739C83.7486 39.8191 85.5435 39.0296 86.0489 37.2859L86.3388 36.2785L86.0489 35.2957C85.1309 32.1943 80.8151 31.8595 79.0033 31.8595H64.7578V34.5562L64.3173 34.1605C64.2882 34.133 64.2613 34.1033 64.2369 34.0716C64.2232 34.0523 64.2075 34.0345 64.1902 34.0184L64.111 33.9587C62.185 31.8582 58.6561 31.8582 56.3221 31.8582L42.8505 31.8595V37.3631L42.3555 36.466C39.9852 32.1709 34.1702 31.5293 30.9144 31.5293L30.9137 31.5287ZM83.4326 40.3867C84.4881 40.6618 85.3593 41.0374 86.0365 41.5122V38.5236C85.4858 39.3228 84.6074 39.9527 83.4326 40.3867ZM64.7572 48.055L58.8345 41.9741L59.3301 41.8898C60.935 41.6154 62.9512 41.0906 64.2888 39.4701L64.7572 38.9044V48.055ZM59.9088 42.3205L64.2291 46.7563V40.3115C62.9615 41.5297 61.3288 42.0396 59.9088 42.3205ZM76.2561 46.6928H72.0388V42.3523H76.21C77.183 42.3523 80.145 42.3523 80.145 44.4735C80.145 45.9461 78.8359 46.6921 76.2554 46.6921L76.2561 46.6928ZM72.5675 46.1641H76.2554C78.5181 46.1641 79.617 45.6114 79.617 44.4729C79.617 43.0451 77.6728 42.8803 76.2093 42.8803H72.5675V46.1641ZM30.867 46.1342C27.968 46.1342 26.3715 44.24 26.3715 40.8006C26.3715 37.3819 27.9933 35.4216 30.8216 35.4216C33.7077 35.4216 35.3625 37.2982 35.3625 40.569C35.3625 44.2614 33.8504 46.1342 30.867 46.1342ZM30.8216 35.9496C27.4088 35.9496 26.8995 38.9888 26.8995 40.8006C26.8995 42.9932 27.5872 45.6062 30.867 45.6062C33.574 45.6062 34.8345 44.0058 34.8345 40.569C34.8345 38.8435 34.3129 35.9496 30.8216 35.9496ZM53.5164 39.5304H50.2288V35.1407H53.6073C54.7016 35.1407 57.2672 35.1407 57.2672 37.3125C57.2672 39.3131 54.6439 39.5304 53.5164 39.5304ZM50.7569 39.0017H53.5164C54.4856 39.0017 56.7385 38.837 56.7385 37.3125C56.7385 35.8685 55.2336 35.6687 53.6073 35.6687H50.7562L50.7569 39.0017ZM75.6528 39.2508H72.0395V35.1413H75.6982C76.557 35.1413 79.1726 35.1413 79.1726 37.1737C79.1726 39.2515 76.7062 39.2508 75.6528 39.2508ZM72.5682 38.7221H75.6528C77.2064 38.7221 78.6439 38.5353 78.6439 37.173C78.6439 36.1475 77.7091 35.6687 75.6982 35.6687H72.5682V38.7221Z" fill="#1A1918"/>
<path d="M86.5646 31.8589V42.6422L86.1254 42.253C85.3035 41.5232 84.0314 40.9971 82.348 40.6897L81.1466 40.4704L82.3292 40.1739C83.7473 39.8191 85.5429 39.0303 86.0476 37.2872L86.3388 36.2785L86.0476 35.2957C85.1296 32.1936 80.8145 31.8589 79.002 31.8589H64.7571L64.7578 34.5562L64.316 34.1605C64.2871 34.1325 64.2603 34.1026 64.2356 34.0709C64.2223 34.0517 64.2071 34.0346 64.1902 34.0184L64.1104 33.9594C62.1837 31.8582 58.6561 31.8582 56.3221 31.8582L42.8505 31.8595V37.3631L42.3549 36.4653C39.9852 32.1702 34.1695 31.5293 30.9144 31.5293C24.9262 31.5293 18.528 34.0268 18.528 41.0348C18.528 49.6119 27.3848 50.5369 31.192 50.5369C35.0686 50.5369 40.1525 49.682 42.3542 45.6049L42.8505 44.6863V50.2113L50.2282 50.2106V42.5365H51.536L58.793 50.2106L77.8382 50.2113C80.891 50.2113 84.2623 49.9544 86.1124 48.0576L86.5646 47.5938V50.2106L93.806 50.2113V31.8595L86.5646 31.8589ZM30.8677 46.1348C27.968 46.1348 26.3709 44.2406 26.3709 40.8012C26.3709 37.3826 27.9926 35.4228 30.8209 35.4228C33.7077 35.4228 35.3625 37.2989 35.3625 40.569C35.3625 44.2621 33.8497 46.1348 30.8677 46.1348ZM53.5164 39.5304H50.2288L50.2282 35.1413H53.6079C54.7023 35.1413 57.2672 35.1413 57.2672 37.3125C57.2672 39.3144 54.6439 39.5304 53.5164 39.5304ZM64.7572 48.055L58.8358 41.9747L59.3301 41.8898C60.935 41.6147 62.9512 41.0912 64.2894 39.4707L64.7572 38.9044V48.055ZM72.0395 35.1413H75.6982C76.5557 35.1413 79.1726 35.1407 79.1726 37.1737C79.1726 39.2515 76.7062 39.2508 75.6528 39.2508H72.0395V35.1413ZM76.2561 46.6928L72.0401 46.6927V42.3523L76.21 42.3523C77.183 42.3523 80.145 42.3523 80.145 44.4735C80.145 45.9461 78.8372 46.6928 76.2561 46.6928Z" fill="#B11C33"/>
<path d="M133.307 32.4239C131.488 31.613 129.39 31.1447 127.151 31.1447C124.911 31.1447 122.813 31.613 120.992 32.4239H133.307ZM119.463 33.2413C118.86 33.6081 118.29 34.0272 117.759 34.4939H136.541C136.01 34.0272 135.44 33.6081 134.836 33.2413H119.463ZM137.333 35.2847H116.967C116.612 35.6739 116.287 36.0813 116.007 36.5107H138.293C138.005 36.0776 137.685 35.6676 137.333 35.2847ZM129.971 38.5003H139.254C139.118 38.0847 138.951 37.6802 138.753 37.2905H128.897C129.32 37.5993 129.684 38.0144 129.971 38.5003ZM124.211 38.5003C124.499 38.0138 124.863 37.5986 125.287 37.2905H115.548C115.35 37.6803 115.182 38.0847 115.046 38.5003H124.211ZM123.571 40.5496C123.613 40.1156 123.689 39.6939 123.827 39.3073H114.816C114.725 39.7134 114.673 40.1292 114.644 40.5496H123.571ZM139.656 40.5496C139.631 40.1316 139.573 39.7163 139.484 39.3073H130.355C130.492 39.6939 130.568 40.1156 130.611 40.5496H139.656ZM139.509 42.5553C139.587 42.1616 139.647 41.7639 139.663 41.3559H130.63C130.603 41.7631 130.529 42.1658 130.41 42.556L139.509 42.5553ZM123.772 42.5553C123.652 42.1655 123.578 41.7629 123.551 41.3559H114.637C114.653 41.7633 114.712 42.1616 114.79 42.556L123.772 42.5553ZM138.8 44.6208C139.001 44.216 139.179 43.8015 139.312 43.3727H130.109C129.874 43.8438 129.554 44.2671 129.164 44.6208H138.8ZM125.02 44.6208C124.629 44.2675 124.308 43.8442 124.073 43.3727H114.987C115.12 43.8015 115.299 44.216 115.5 44.6208H125.02ZM116.932 46.7116H137.368C137.732 46.3123 138.062 45.8836 138.355 45.4297H127.29C127.223 45.4343 127.159 45.4537 127.091 45.4537C127.023 45.4537 126.961 45.4343 126.892 45.4297H115.944C116.23 45.8793 116.567 46.3042 116.933 46.7122L116.932 46.7116ZM134.975 48.7128C135.541 48.3601 136.076 47.9608 136.575 47.5192H117.726C118.224 47.9612 118.76 48.3605 119.325 48.7128H134.975ZM120.817 49.536C122.678 50.3975 124.837 50.9002 127.151 50.9002C129.464 50.9002 131.623 50.3975 133.483 49.536H120.817ZM100.793 49.5373C102.652 50.3988 104.811 50.9009 107.123 50.9009C110.116 50.9009 112.254 50.6116 114.075 49.5373H100.793ZM113.307 32.4336C111.483 31.6163 109.374 31.144 107.122 31.144C104.874 31.144 102.769 31.6176 100.945 32.4336H113.307ZM115.506 34.4868L116.069 34.1015C115.684 33.792 115.264 33.5111 114.83 33.2452H99.4134C98.8276 33.6105 98.2745 34.0259 97.7605 34.4868H115.506ZM112.569 36.4952L114.321 35.2977H96.9211C96.5816 35.6725 96.2715 36.0728 95.9935 36.4952H112.569ZM105.216 44.6176C104.801 44.2717 104.456 43.8504 104.198 43.376H94.9627C95.0956 43.8028 95.2721 44.2147 95.4725 44.6176H105.216ZM110.666 44.6176L110.092 44.2673C109.97 44.397 109.832 44.506 109.697 44.6176H110.666ZM96.9107 46.7161H114.095L111.992 45.4291H107.681C107.607 45.4343 107.538 45.4537 107.462 45.4537C107.391 45.4537 107.323 45.4336 107.252 45.4291H95.9182C96.2043 45.8806 96.5436 46.3074 96.9107 46.7161ZM95.5329 37.3054C95.3318 37.694 95.1534 38.0903 95.0159 38.5023H104.338C104.634 38.0306 105.022 37.6235 105.479 37.3054H95.5329ZM109.426 37.3054C109.738 37.5175 110.031 37.7621 110.278 38.0624L111.385 37.3054H109.426ZM94.8044 39.3125C94.7101 39.7215 94.648 40.1373 94.6189 40.556H103.65C103.698 40.1298 103.801 39.7117 103.958 39.3125H94.8044ZM94.6085 41.3656C94.6305 41.7711 94.6785 42.1707 94.757 42.5631H103.853C103.732 42.1742 103.658 41.7722 103.633 41.3656H94.6085ZM115.227 48.7264C115.512 48.4838 115.793 48.2185 116.069 47.9234L115.423 47.5276H97.708C98.2107 47.9716 98.7497 48.3726 99.3194 48.7264H115.227Z" fill="#1A1918"/>
<path d="M146.579 47.5315H156.238V40.2083H146.579V47.5315ZM136.103 51.4756L136.106 48.103H146.009V56.3642C144.725 56.084 139.522 54.8897 136.886 53.3439C136.023 52.8372 136.102 51.5087 136.103 51.4756Z" fill="#B11C33"/>
<path d="M155.381 53.5645C152.922 54.7023 147.992 55.9776 146.58 56.3299V48.103H156.237V51.9025C156.236 51.9161 156.184 53.1934 155.381 53.5645ZM139.632 40.209C139.66 40.4769 139.684 40.7468 139.684 41.0212C139.684 43.5187 138.5 45.7924 136.561 47.5315H146.009V40.209H139.632Z" fill="white"/>
<path d="M139.547 39.6381C139.581 39.8276 139.613 40.0163 139.632 40.209H146.009V47.5315H136.561C136.234 47.8231 135.892 48.0967 135.534 48.3496L135.532 51.4555C135.527 51.525 135.425 53.1474 136.596 53.835C139.684 55.6462 145.929 56.9332 146.193 56.9877L146.255 57L146.318 56.9844C146.577 56.9215 152.696 55.4366 155.62 54.0828C156.746 53.5625 156.806 51.9875 156.809 51.9116V39.6381H139.547ZM146.009 56.3642C144.725 56.0853 139.522 54.8891 136.885 53.3433C136.022 52.8366 136.102 51.5087 136.103 51.4756L136.106 48.103H146.009V56.3642ZM156.237 51.9025C156.237 51.9148 156.184 53.1934 155.381 53.5645C152.922 54.7036 147.991 55.9763 146.58 56.3299V48.103H156.237V51.9025Z" fill="black"/>
<path d="M146.579 47.5321L156.238 47.5315V40.2083H146.579L146.579 47.5321Z" fill="#B11C33"/>
</svg>
